<?xml version="1.0" encoding="UTF-8"?>
<svg version="1.1" xmlns="http://www.w3.org/2000/svg" width="474" height="474">
<path d="M0 0 C156.42 0 312.84 0 474 0 C474 156.42 474 312.84 474 474 C317.58 474 161.16 474 0 474 C0 317.58 0 161.16 0 0 Z " fill="#060606" transform="translate(0,0)"/>
<path d="M0 0 C19.47 0 38.94 0 59 0 C59 19.47 59 38.94 59 59 C78.47 59 97.94 59 118 59 C118 39.53 118 20.06 118 0 C156.94 0 195.88 0 236 0 C236 58.74 236 117.48 236 178 C197.06 178 158.12 178 118 178 C118 158.53 118 139.06 118 119 C98.53 119 79.06 119 59 119 C59 138.47 59 157.94 59 178 C39.53 178 20.06 178 0 178 C0 119.26 0 60.52 0 0 Z " fill="#FCFCFC" transform="translate(119,112)"/>
<path d="M0 0 C38.94 0 77.88 0 118 0 C118 58.74 118 117.48 118 178 C79.06 178 40.12 178 0 178 C0 158.53 0 139.06 0 119 C19.8 119 39.6 119 60 119 C60 99.2 60 79.4 60 59 C40.2 59 20.4 59 0 59 C0 39.53 0 20.06 0 0 Z " fill="#FEFEFE" transform="translate(237,112)"/>
<path d="M0 0 C19.47 0 38.94 0 59 0 C59 19.47 59 38.94 59 59 C39.53 59 20.06 59 0 59 C0 39.53 0 20.06 0 0 Z " fill="#070707" transform="translate(237,172)"/>
<path d="M0 0 C14 0 14 0 17.875 1.5 C20.18759194 4.2206964 20.3267503 4.84839581 20.375 8.25 C20.25125 9.4875 20.1275 10.725 20 12 C18.02 12.99 18.02 12.99 16 14 C16 14.66 16 15.32 16 16 C16.61875 16.268125 17.2375 16.53625 17.875 16.8125 C20 18 20 18 22 21 C21.77777778 27.22222222 21.77777778 27.22222222 19.125 29.875 C12.38970101 33.44074652 9.3742099 32 0 32 C0 21.44 0 10.88 0 0 Z " fill="#E2E2E2" transform="translate(87,323)"/>
<path d="M0 0 C14 0 14 0 19 3 C21.40450178 5.40450178 21.29609139 6.08233942 21.3125 9.375 C21.24868341 12.42346918 21.09095213 13.83049831 19.625 16.5625 C18 18 18 18 16 18 C16.433125 18.75925781 16.86625 19.51851563 17.3125 20.30078125 C17.869375 21.29464844 18.42625 22.28851563 19 23.3125 C19.556875 24.29863281 20.11375 25.28476562 20.6875 26.30078125 C22 29 22 29 22 32 C20.68 32 19.36 32 18 32 C16.99491199 30.21118264 15.99607264 28.41885304 15 26.625 C14.1646875 25.12839844 14.1646875 25.12839844 13.3125 23.6015625 C12 21 12 21 12 19 C9.36 19 6.72 19 4 19 C4 23.29 4 27.58 4 32 C2.68 32 1.36 32 0 32 C0 21.44 0 10.88 0 0 Z " fill="#F7F7F7" transform="translate(222,323)"/>
<path d="M0 0 C1.65 0 3.3 0 5 0 C16 26.98969072 16 26.98969072 16 32 C14.68 32 13.36 32 12 32 C10.50178941 28.62902617 10 26.79557881 10 23 C5.38 23 0.76 23 -4 23 C-4.66 25.64 -5.32 28.28 -6 31 C-7.65 31.33 -9.3 31.66 -11 32 C-9.81657769 27.63044069 -8.43308827 23.44433031 -6.8269043 19.20703125 C-5.43448435 15.49062255 -4.1266914 11.74463425 -2.8125 8 C-2.40354492 6.83791016 -2.40354492 6.83791016 -1.98632812 5.65234375 C-1.32348918 3.76848571 -0.66163914 1.88427976 0 0 Z " fill="#E3E3E3" transform="translate(270,323)"/>
<path d="M0 0 C1.32 0 2.64 0 4 0 C4 4.62 4 9.24 4 14 C9.28 14 14.56 14 20 14 C20 9.38 20 4.76 20 0 C21.65 0 23.3 0 25 0 C25 10.56 25 21.12 25 32 C23.35 32 21.7 32 20 32 C20 27.38 20 22.76 20 18 C14.72 18 9.44 18 4 18 C4 22.62 4 27.24 4 32 C2.68 32 1.36 32 0 32 C0 21.44 0 10.88 0 0 Z " fill="#BABABA" transform="translate(351,323)"/>
<path d="M0 0 C6.27 0 12.54 0 19 0 C19 1.32 19 2.64 19 4 C14.05 4 9.1 4 4 4 C4 7.3 4 10.6 4 14 C8.62 14 13.24 14 18 14 C18 15.32 18 16.64 18 18 C13.38 18 8.76 18 4 18 C4 21.3 4 24.6 4 28 C9.28 28 14.56 28 20 28 C20 29.32 20 30.64 20 32 C13.4 32 6.8 32 0 32 C0 21.44 0 10.88 0 0 Z " fill="#D8D8D8" transform="translate(196,323)"/>
<path d="M0 0 C6.27 0 12.54 0 19 0 C19 1.32 19 2.64 19 4 C14.05 4 9.1 4 4 4 C4 7.3 4 10.6 4 14 C8.62 14 13.24 14 18 14 C18 15.32 18 16.64 18 18 C13.38 18 8.76 18 4 18 C4 21.3 4 24.6 4 28 C8.95 28 13.9 28 19 28 C19 29.32 19 30.64 19 32 C12.73 32 6.46 32 0 32 C0 21.44 0 10.88 0 0 Z " fill="#D5D5D5" transform="translate(115,323)"/>
<path d="M0 0 C1.32 0 2.64 0 4 0 C4.01981934 0.70608398 4.03963867 1.41216797 4.06005859 2.13964844 C4.15540415 5.34346994 4.26504513 8.54664801 4.375 11.75 C4.4059375 12.86117188 4.436875 13.97234375 4.46875 15.1171875 C4.50742187 16.18710937 4.54609375 17.25703125 4.5859375 18.359375 C4.6173584 19.34389648 4.6487793 20.32841797 4.68115234 21.34277344 C5.00102258 24.00852201 5.64368621 25.70616405 7 28 C8.41396973 28.13595863 9.83176684 28.23243845 11.25 28.3125 C12.03890625 28.37050781 12.8278125 28.42851562 13.640625 28.48828125 C16.15352068 28.15232107 16.15352068 28.15232107 18.25 26.21875 C20.89685797 21.35042195 20.67662418 16.64732799 20.75 11.1875 C20.79447266 9.57584961 20.79447266 9.57584961 20.83984375 7.93164062 C20.91034921 5.28768573 20.96314143 2.6446027 21 0 C22.32 0 23.64 0 25 0 C25.11668214 3.87474457 25.18741231 7.74903396 25.25 11.625 C25.30027344 13.26662109 25.30027344 13.26662109 25.3515625 14.94140625 C25.42798253 21.24605852 25.44493158 25.32194264 21 30 C16.80939994 32.91739964 11.90731587 32.65218785 7 32 C3.35900806 29.87608803 1.55173825 27.86867049 0 24 C-0.22705078 21.34277344 -0.22705078 21.34277344 -0.1953125 18.359375 C-0.18886719 17.28945313 -0.18242187 16.21953125 -0.17578125 15.1171875 C-0.15902344 14.00601562 -0.14226562 12.89484375 -0.125 11.75 C-0.11597656 10.62335938 -0.10695313 9.49671875 -0.09765625 8.3359375 C-0.07410658 5.55707635 -0.0412168 2.7786461 0 0 Z " fill="#E3E3E3" transform="translate(291,323)"/>
<path d="M0 0 C7.92 0 15.84 0 24 0 C24 1.32 24 2.64 24 4 C21.03 4 18.06 4 15 4 C15 13.24 15 22.48 15 32 C13.35 32 11.7 32 10 32 C10 22.76 10 13.52 10 4 C6.7 4 3.4 4 0 4 C0 2.68 0 1.36 0 0 Z " fill="#CBCBCB" transform="translate(321,323)"/>
<path d="M0 0 C7.92 0 15.84 0 24 0 C24 1.32 24 2.64 24 4 C20.7 4 17.4 4 14 4 C14 13.24 14 22.48 14 32 C12.35 32 10.7 32 9 32 C9 22.76 9 13.52 9 4 C6.03 4 3.06 4 0 4 C0 2.68 0 1.36 0 0 Z " fill="#CBCBCB" transform="translate(167,323)"/>
<path d="M0 0 C7.92 0 15.84 0 24 0 C24 1.32 24 2.64 24 4 C20.7 4 17.4 4 14 4 C14 13.24 14 22.48 14 32 C12.68 32 11.36 32 10 32 C10 22.76 10 13.52 10 4 C6.7 4 3.4 4 0 4 C0 2.68 0 1.36 0 0 Z " fill="#C8C8C8" transform="translate(139,323)"/>
<path d="M0 0 C0.66 0 1.32 0 2 0 C2.4803318 1.58298026 2.95921612 3.16639978 3.4375 4.75 C3.70433594 5.63171875 3.97117187 6.5134375 4.24609375 7.421875 C4.88468494 9.60565835 5.46775833 11.78835498 6 14 C3.69 14.33 1.38 14.66 -1 15 C1.64 15.33 4.28 15.66 7 16 C7 16.33 7 16.66 7 17 C2.71 17 -1.58 17 -6 17 C-6.66 19.64 -7.32 22.28 -8 25 C-9.65 25.33 -11.3 25.66 -13 26 C-11.79180085 21.53895697 -10.38699998 17.24730198 -8.73046875 12.93359375 C-7.7411256 10.31474424 -6.86516463 7.66204502 -6 5 C-5.67 6.32 -5.34 7.64 -5 9 C-4.01 9 -3.02 9 -2 9 C-1.855625 7.88625 -1.71125 6.7725 -1.5625 5.625 C-1 2 -1 2 0 0 Z " fill="#D4D4D4" transform="translate(272,329)"/>
<path d="M0 0 C10.48893081 -0.37019756 10.48893081 -0.37019756 12.828125 1.32421875 C14.66769486 3.95480366 14.45354771 5.88995859 14 9 C11.80816743 11.16160039 10.50039296 11.94313716 7.421875 12.29296875 C6.54015625 12.25816406 5.6584375 12.22335937 4.75 12.1875 C3.1825 12.125625 1.615 12.06375 0 12 C0 8.04 0 4.08 0 0 Z " fill="#0D0D0D" transform="translate(226,327)"/>
<path d="M0 0 C1.12329712 0.07069702 1.12329712 0.07069702 2.26928711 0.14282227 C3.07817383 0.19116211 3.88706055 0.23950195 4.72045898 0.28930664 C5.99566406 0.37341797 5.99566406 0.37341797 7.29663086 0.45922852 C8.57763672 0.53753906 8.57763672 0.53753906 9.88452148 0.61743164 C12.00135081 0.74751612 14.1177833 0.88402822 16.23413086 1.02172852 C16.56413086 1.68172852 16.89413086 2.34172852 17.23413086 3.02172852 C18.88413086 2.69172852 20.53413086 2.36172852 22.23413086 2.02172852 C21.90413086 3.67172852 21.57413086 5.32172852 21.23413086 7.02172852 C17.4216466 7.05060088 13.60919016 7.06848343 9.79663086 7.08422852 C8.70801758 7.09260742 7.6194043 7.10098633 6.49780273 7.10961914 C5.46333008 7.1128418 4.42885742 7.11606445 3.36303711 7.11938477 C2.40469971 7.12462158 1.4463623 7.1298584 0.45898438 7.13525391 C-1.76586914 7.02172852 -1.76586914 7.02172852 -2.76586914 6.02172852 C-2.89086914 3.52172852 -2.89086914 3.52172852 -2.76586914 1.02172852 C-1.76586914 0.02172852 -1.76586914 0.02172852 0 0 Z " fill="#262626" transform="translate(181.765869140625,381.978271484375)"/>
<path d="M0 0 C1.77007714 -0.08114106 3.54122098 -0.13925505 5.3125 -0.1875 C6.29863281 -0.22230469 7.28476563 -0.25710938 8.30078125 -0.29296875 C11 0 11 0 12.8671875 1.31640625 C14 3 14 3 13.8125 6.125 C13.544375 7.07375 13.27625 8.0225 13 9 C10.35541621 10.32229189 8.32238699 10.09677194 5.375 10.0625 C4.37210937 10.05347656 3.36921875 10.04445313 2.3359375 10.03515625 C1.56507812 10.02355469 0.79421875 10.01195312 0 10 C0 6.7 0 3.4 0 0 Z " fill="#040404" transform="translate(91,341)"/>
<path d="M0 0 C0.99 0 1.98 0 3 0 C3 9.9 3 19.8 3 30 C2.01 30 1.02 30 0 30 C0 25.38 0 20.76 0 16 C-5.28 16 -10.56 16 -16 16 C-16 15.34 -16 14.68 -16 14 C-10.72 14 -5.44 14 0 14 C0 9.38 0 4.76 0 0 Z " fill="#FCFCFC" transform="translate(372,324)"/>
<path d="M0 0 C14 0 14 0 19 3 C21 5 21 5 21.1953125 7.1640625 C21.17210937 7.97617187 21.14890625 8.78828125 21.125 9.625 C21.10695312 10.44226563 21.08890625 11.25953125 21.0703125 12.1015625 C21.04710937 12.72804688 21.02390625 13.35453125 21 14 C20.01 14 19.02 14 18 14 C17.87625 12.88625 17.7525 11.7725 17.625 10.625 C17.3534187 6.96896323 17.3534187 6.96896323 15 5 C12.33757179 4.53709779 12.33757179 4.53709779 9.375 4.375 C8.37210938 4.30023438 7.36921875 4.22546875 6.3359375 4.1484375 C5.56507813 4.09945313 4.79421875 4.05046875 4 4 C4.66 3.67 5.32 3.34 6 3 C6 2.34 6 1.68 6 1 C4.35 1 2.7 1 1 1 C1 10.9 1 20.8 1 31 C1.99 31.33 2.98 31.66 4 32 C2.68 32 1.36 32 0 32 C0 21.44 0 10.88 0 0 Z " fill="#D9D9D9" transform="translate(222,323)"/>
<path d="M0 0 C9.625 -0.25 9.625 -0.25 13 2 C13.4375 4.4375 13.4375 4.4375 13 7 C11.5625 8.8125 11.5625 8.8125 9 10 C5.95203989 10.2413187 3.0673978 10.13532637 0 10 C0 6.7 0 3.4 0 0 Z " fill="#0E0E0E" transform="translate(91,327)"/>
<path d="M0 0 C0.99 0.99 1.98 1.98 3 3 C1.02 3.99 1.02 3.99 -1 5 C-0.566875 5.75925781 -0.13375 6.51851563 0.3125 7.30078125 C0.869375 8.29464844 1.42625 9.28851563 2 10.3125 C2.556875 11.29863281 3.11375 12.28476562 3.6875 13.30078125 C5 16 5 16 5 19 C3.68 19 2.36 19 1 19 C-0.00508801 17.21118264 -1.00392736 15.41885304 -2 13.625 C-2.8353125 12.12839844 -2.8353125 12.12839844 -3.6875 10.6015625 C-5 8 -5 8 -5 6 C-5.763125 6.061875 -6.52625 6.12375 -7.3125 6.1875 C-10.48780806 5.96596688 -10.95735659 5.28224968 -13 3 C-11.96939453 2.92652344 -11.96939453 2.92652344 -10.91796875 2.8515625 C-9.56638672 2.73941406 -9.56638672 2.73941406 -8.1875 2.625 C-7.29417969 2.55539062 -6.40085938 2.48578125 -5.48046875 2.4140625 C-2.75601501 2.13354964 -2.75601501 2.13354964 0 0 Z " fill="#EEEEEE" transform="translate(239,336)"/>
<path d="M0 0 C1.95825873 -0.02694851 3.91662226 -0.04637218 5.875 -0.0625 C6.96554688 -0.07410156 8.05609375 -0.08570313 9.1796875 -0.09765625 C12 0 12 0 14 1 C15.32 1 16.64 1 18 1 C17.67 2.65 17.34 4.3 17 6 C14.03 6 11.06 6 8 6 C8 4.68 8 3.36 8 2 C7.34 2 6.68 2 6 2 C6 3.32 6 4.64 6 6 C4.02 6 2.04 6 0 6 C-1.125 2.25 -1.125 2.25 0 0 Z " fill="#323232" transform="translate(230,383)"/>
<path d="M0 0 C3.96 0 7.92 0 12 0 C12 0.66 12 1.32 12 2 C7.545 2.495 7.545 2.495 3 3 C2.67 11.91 2.34 20.82 2 30 C1.34 30 0.68 30 0 30 C0 20.1 0 10.2 0 0 Z " fill="#FCFCFC" transform="translate(150,324)"/>
<path d="M0 0 C2.59060578 0.35732494 3.84567494 0.8616396 5.8125 2.625 C7.55280377 6.10560754 7.00705882 8.30745101 6 12 C4.0625 13.9375 4.0625 13.9375 2 15 C1.34 15 0.68 15 0 15 C0 14.34 0 13.68 0 13 C-3.63 13 -7.26 13 -11 13 C-11 12.67 -11 12.34 -11 12 C-4.565 11.505 -4.565 11.505 2 11 C2 8.36 2 5.72 2 3 C1.34 3 0.68 3 0 3 C0 2.01 0 1.02 0 0 Z " fill="#DADADA" transform="translate(102,339)"/>
<path d="M0 0 C0.66 0 1.32 0 2 0 C2.50512244 1.60256108 3.00391627 3.20711792 3.5 4.8125 C3.7784375 5.70582031 4.056875 6.59914063 4.34375 7.51953125 C5 10 5 10 5 13 C2.03 13 -0.94 13 -4 13 C-2.68 8.71 -1.36 4.42 0 0 Z " fill="#0F0F0F" transform="translate(272,329)"/>
<path d="M0 0 C1.33599921 0.32248257 2.66893378 0.65772583 4 1 C7.27275026 1 9.846632 0.70074844 13 0 C13.33 1.65 13.66 3.3 14 5 C13.34 4.34 12.68 3.68 12 3 C11.67 3.99 11.34 4.98 11 6 C7.37 6 3.74 6 0 6 C-0.33 4.35 -0.66 2.7 -1 1 C-0.67 0.67 -0.34 0.34 0 0 Z " fill="#3E3E3E" transform="translate(277,383)"/>
<path d="M0 0 C1.134375 0.020625 2.26875 0.04125 3.4375 0.0625 C3.1075 2.0425 2.7775 4.0225 2.4375 6.0625 C-1.22916667 6.0625 -4.89583333 6.0625 -8.5625 6.0625 C-8.5625 6.7225 -8.5625 7.3825 -8.5625 8.0625 C-9.2225 8.0625 -9.8825 8.0625 -10.5625 8.0625 C-10.5625 5.7525 -10.5625 3.4425 -10.5625 1.0625 C-9.1084375 1.0934375 -9.1084375 1.0934375 -7.625 1.125 C-3.88736045 1.04872164 -3.92115709 0.06879223 0 0 Z " fill="#363636" transform="translate(217.5625,382.9375)"/>
<path d="M0 0 C0.99 0 1.98 0 3 0 C3.0868329 3.458176 3.14033282 6.91607344 3.1875 10.375 C3.22520508 11.85226562 3.22520508 11.85226562 3.26367188 13.359375 C3.27333984 14.30039062 3.28300781 15.24140625 3.29296875 16.2109375 C3.3086792 17.08024902 3.32438965 17.94956055 3.34057617 18.84521484 C3.22818604 19.55629395 3.1157959 20.26737305 3 21 C2.01 21.66 1.02 22.32 0 23 C0 15.41 0 7.82 0 0 Z " fill="#F7F7F7" transform="translate(312,324)"/>
<path d="M0 0 C1.32 0 2.64 0 4 0 C4.11668214 3.87474457 4.18741231 7.74903396 4.25 11.625 C4.30027344 13.26662109 4.30027344 13.26662109 4.3515625 14.94140625 C4.42841207 21.28149537 4.29368613 25.18228131 0 30 C-1.32 29.01 -2.64 28.02 -4 27 C-0.25 23.125 -0.25 23.125 2 22 C2.33 15.07 2.66 8.14 3 1 C2.01 0.67 1.02 0.34 0 0 Z " fill="#C4C4C4" transform="translate(312,323)"/>
<path d="M0 0 C2.31 0 4.62 0 7 0 C7.33 0.66 7.66 1.32 8 2 C9.65 1.67 11.3 1.34 13 1 C12.67 2.65 12.34 4.3 12 6 C9.36 6 6.72 6 4 6 C3.67 5.01 3.34 4.02 3 3 C2.34 2.67 1.68 2.34 1 2 C0.67 2.99 0.34 3.98 0 5 C0 3.35 0 1.7 0 0 Z " fill="#353535" transform="translate(191,383)"/>
<path d="M0 0 C1.65 0.33 3.3 0.66 5 1 C6.3260274 6.42465753 6.3260274 6.42465753 4.9375 8.875 C2.24099753 10.44071111 0.05869541 10.20391303 -3 10 C-2.34 8.35 -1.68 6.7 -1 5 C-0.34 5 0.32 5 1 5 C0.67 3.35 0.34 1.7 0 0 Z " fill="#0E0E0E" transform="translate(99,341)"/>
<path d="M0 0 C0.33 0.99 0.66 1.98 1 3 C1.99 2.67 2.98 2.34 4 2 C4.66 3.98 5.32 5.96 6 8 C5.34 8.66 4.68 9.32 4 10 C4 9.34 4 8.68 4 8 C2.02 8.99 2.02 8.99 0 10 C-3 5.375 -3 5.375 -3 2 C-2.01 1.34 -1.02 0.68 0 0 Z " fill="#121212" transform="translate(241,339)"/>
<path d="M0 0 C3.3 0 6.6 0 10 0 C9.67 1.65 9.34 3.3 9 5 C6.03 5 3.06 5 0 5 C0 3.35 0 1.7 0 0 Z " fill="#353535" transform="translate(238,384)"/>
<path d="M0 0 C0.66 0.33 1.32 0.66 2 1 C1.32517578 1.59748047 1.32517578 1.59748047 0.63671875 2.20703125 C-1.22998284 4.25193824 -2.11749469 6.14162531 -3.1875 8.6875 C-3.53167969 9.49574219 -3.87585938 10.30398438 -4.23046875 11.13671875 C-4.48441406 11.75160156 -4.73835938 12.36648438 -5 13 C-7 11.625 -7 11.625 -9 10 C-9 9.34 -9 8.68 -9 8 C-8.21625 7.54625 -7.4325 7.0925 -6.625 6.625 C-3.81852332 4.8876573 -3.26877898 3.9279515 -2 1 C-1.34 0.67 -0.68 0.34 0 0 Z " fill="#0F0F0F" transform="translate(317,346)"/>
<path d="M0 0 C5.61 0 11.22 0 17 0 C17 0.66 17 1.32 17 2 C14.54203147 2.19436491 12.08390706 2.3807742 9.625 2.5625 C8.92632812 2.61857422 8.22765625 2.67464844 7.5078125 2.73242188 C2.2265625 3.11328125 2.2265625 3.11328125 0 2 C0 1.34 0 0.68 0 0 Z " fill="#FDFDFD" transform="translate(116,324)"/>
<path d="M0 0 C0.78375 0.33 1.5675 0.66 2.375 1 C4.84332497 2.11866511 4.84332497 2.11866511 7 2 C7 2.99 7 3.98 7 5 C4.69 5.33 2.38 5.66 0 6 C-0.38218767 4.34385343 -0.71395102 2.67542976 -1 1 C-0.67 0.67 -0.34 0.34 0 0 Z " fill="#282828" transform="translate(277,383)"/>
<path d="M0 0 C0 1.98 0 3.96 0 6 C-1.32 6.33 -2.64 6.66 -4 7 C-4.33 5.35 -4.66 3.7 -5 2 C-2 0 -2 0 0 0 Z " fill="#363636" transform="translate(259,382)"/>
<path d="M0 0 C0.66 0 1.32 0 2 0 C2.125 6.75 2.125 6.75 1 9 C0.01 9 -0.98 9 -2 9 C-1.125 2.25 -1.125 2.25 0 0 Z " fill="#1C1C1C" transform="translate(272,329)"/>
<path d="M0 0 C-0.33 2.97 -0.66 5.94 -1 9 C-1.99 9 -2.98 9 -4 9 C-4.368 3.48 -4.368 3.48 -2.5625 1.125 C-1 0 -1 0 0 0 Z " fill="#ECECEC" transform="translate(271,329)"/>
<path d="M0 0 C2.31 0 4.62 0 7 0 C7 2.64 7 5.28 7 8 C6.67 8 6.34 8 6 8 C6 6.02 6 4.04 6 2 C5.01 2 4.02 2 3 2 C3 3.65 3 5.3 3 7 C2.67 7 2.34 7 2 7 C2 5.35 2 3.7 2 2 C1.34 2 0.68 2 0 2 C0 1.34 0 0.68 0 0 Z " fill="#3A3A3A" transform="translate(268,381)"/>
<path d="M0 0 C1.65 0 3.3 0 5 0 C5 1.98 5 3.96 5 6 C3.35 6 1.7 6 0 6 C0 4.02 0 2.04 0 0 Z " fill="#171717" transform="translate(269,383)"/>
<path d="M0 0 C1.65 0 3.3 0 5 0 C4.67 1.65 4.34 3.3 4 5 C2.68 4.67 1.36 4.34 0 4 C0 2.68 0 1.36 0 0 Z " fill="#E3E3E3" transform="translate(383,350)"/>
<path d="M0 0 C0.66 0 1.32 0 2 0 C2.226875 0.639375 2.45375 1.27875 2.6875 1.9375 C3.85250896 4.27193661 3.85250896 4.27193661 6.625 4.75 C7.40875 4.8325 8.1925 4.915 9 5 C9 5.33 9 5.66 9 6 C2.47692308 6.36923077 2.47692308 6.36923077 0.0625 4.5 C-0.4634375 3.7575 -0.4634375 3.7575 -1 3 C-0.67 2.01 -0.34 1.02 0 0 Z " fill="#333333" transform="translate(298,346)"/>
<path d="M0 0 C2.475 0.495 2.475 0.495 5 1 C5 2.65 5 4.3 5 6 C4.34 6 3.68 6 3 6 C2.67 6.66 2.34 7.32 2 8 C1.33333333 5.33333333 0.66666667 2.66666667 0 0 Z " fill="#0B0B0B" transform="translate(217,352)"/>
<path d="M0 0 C0.99 0.33 1.98 0.66 3 1 C3 2.65 3 4.3 3 6 C1.68 6 0.36 6 -1 6 C-1.042721 4.33388095 -1.04063832 2.66617115 -1 1 C-0.67 0.67 -0.34 0.34 0 0 Z " fill="#404040" transform="translate(293,383)"/>
<path d="M0 0 C1.32 0 2.64 0 4 0 C3.67 1.65 3.34 3.3 3 5 C2.01 5 1.02 5 0 5 C0 3.35 0 1.7 0 0 Z " fill="#3D3D3D" transform="translate(244,384)"/>
<path d="M0 0 C0.268125 0.61875 0.53625 1.2375 0.8125 1.875 C1.95556848 4.2995233 1.95556848 4.2995233 5 6 C4.01 6 3.02 6 2 6 C1.67 6.99 1.34 7.98 1 9 C1 8.34 1 7.68 1 7 C0.34 7 -0.32 7 -1 7 C-0.67 4.69 -0.34 2.38 0 0 Z " fill="#1D1D1D" transform="translate(382,350)"/>
<path d="M0 0 C0.33 1.65 0.66 3.3 1 5 C-0.32 5 -1.64 5 -3 5 C-3.33 3.68 -3.66 2.36 -4 1 C-2 0 -2 0 0 0 Z " fill="#D9D9D9" transform="translate(243,350)"/>
<path d="M0 0 C1.32 0.33 2.64 0.66 4 1 C3.34 1 2.68 1 2 1 C2 1.66 2 2.32 2 3 C2.66 3.33 3.32 3.66 4 4 C3.34 4 2.68 4 2 4 C2 4.99 2 5.98 2 7 C1.34 7 0.68 7 0 7 C0 4.69 0 2.38 0 0 Z " fill="#434343" transform="translate(224,382)"/>
<path d="M0 0 C0.99 0.33 1.98 0.66 3 1 C2.67 2.32 2.34 3.64 2 5 C0.68 4.67 -0.64 4.34 -2 4 C-1.34 2.68 -0.68 1.36 0 0 Z " fill="#303030" transform="translate(214,383)"/>
<path d="M0 0 C0.66 0.33 1.32 0.66 2 1 C2.33 1.99 2.66 2.98 3 4 C2.34 4.66 1.68 5.32 1 6 C-0.5 4.625 -0.5 4.625 -2 3 C-2 2.34 -2 1.68 -2 1 C-1.34 0.67 -0.68 0.34 0 0 Z " fill="#161616" transform="translate(310,353)"/>
</svg>
