<?xml version="1.0" encoding="UTF-8"?>
<svg version="1.1" xmlns="http://www.w3.org/2000/svg" width="630" height="630">
<path d="M0 0 C2.894142 1.54485898 5.79006823 3.08632032 8.6875 4.625 C9.38681641 4.9964917 10.08613281 5.3679834 10.80664062 5.75073242 C16.06373762 8.53177593 21.37021242 11.20182107 26.69995117 13.84033203 C32.34345172 16.6452309 37.92391988 19.56371597 43.5 22.5 C52.27723037 27.11830929 61.11219894 31.5992242 70 36 C79.91789688 40.91633882 89.81749802 45.8423697 99.55883789 51.1015625 C104.65907259 53.84566166 109.83075758 56.43069654 115.02050781 59.00048828 C119.55756501 61.25579573 124.03980724 63.5965983 128.5 66 C136.25014105 70.1705795 144.11405071 74.09390841 152 78 C162.49079409 83.19959524 172.93626401 88.45823506 183.27246094 93.95947266 C188.17064983 96.55127183 193.1035373 99.06577055 198.06640625 101.53125 C198.99264297 101.99171722 198.99264297 101.99171722 199.93759155 102.46148682 C202.99889512 103.98178176 206.0630033 105.49586848 209.13085938 107.00292969 C227.48300485 116.08510288 241.29594349 125.03149717 250.08984375 144.19921875 C252.41031492 151.33989613 252.14481467 158.86980526 252.13371277 166.29684448 C252.1371111 167.97485411 252.1371111 167.97485411 252.14057809 169.68676293 C252.14689457 173.42513769 252.14609024 177.16347597 252.14526367 180.90185547 C252.1482566 183.58628473 252.15163128 186.27071117 252.15544128 188.95513916 C252.16373001 195.48394697 252.16649531 202.01274574 252.16705366 208.54155837 C252.1675296 213.85020775 252.16958821 219.15885416 252.17275429 224.46750259 C252.18155544 239.53206507 252.18617442 254.59662043 252.18542381 269.66118549 C252.18536388 270.87811498 252.18536388 270.87811498 252.18530273 272.11962891 C252.18524141 273.3380509 252.18524141 273.3380509 252.18517885 274.58108748 C252.18477237 287.74614991 252.19434387 300.91118374 252.2084411 314.0762379 C252.22281551 327.60730998 252.22971072 341.13836811 252.22884732 354.66944802 C252.22851576 362.26082386 252.23124521 369.85216971 252.24202538 377.44353867 C252.25114432 383.90624396 252.25329413 390.36890565 252.24651595 396.8316146 C252.24325798 400.12602766 252.24426156 403.42034004 252.2518692 406.71474838 C252.2595961 410.29296933 252.25493949 413.87097192 252.24723816 417.44918823 C252.25238172 418.48072269 252.25752529 419.51225715 252.26282471 420.57505023 C252.19496735 434.87939982 248.37877154 447.78468811 238.375 458.375 C228.27435469 467.64648786 215.82158693 473.20505044 203.640625 479.19921875 C198.42078845 481.7743975 193.26470499 484.4565365 188.125 487.1875 C182.61533943 490.11023191 177.09000378 492.98394857 171.5 495.75 C156.69052548 503.08687404 142.06827544 510.8053138 127.43945312 518.49438477 C118.7996853 523.03508059 110.12504848 527.48642509 101.37988281 531.8203125 C86.25838112 539.3159112 71.17566117 546.86200928 56.27539062 554.78955078 C43.92885016 561.35759237 31.53219824 567.79379532 19 574 C5.04459462 580.90587752 5.04459462 580.90587752 -8.75 588.125 C-28.44055838 598.70957427 -46.94400747 608.44757944 -70 607 C-71.10859375 606.93941406 -72.2171875 606.87882813 -73.359375 606.81640625 C-88.32684454 605.00168087 -101.77173268 596.80952804 -115 590 C-116.09521973 589.43941895 -117.19043945 588.87883789 -118.31884766 588.30126953 C-128.18487404 583.24007628 -137.96628389 578.02357459 -147.73852539 572.78442383 C-153.93837808 569.47447074 -160.22759423 566.34953091 -166.5234375 563.22802734 C-193.67501176 549.76465801 -193.67501176 549.76465801 -207.01879883 542.66845703 C-213.88827915 539.02721282 -220.84181328 535.56461751 -227.80517578 532.10717773 C-234.57348301 528.7372857 -241.27104194 525.2499111 -247.94824219 521.70361328 C-254.50940334 518.23013842 -261.14249494 514.91297567 -267.79248047 511.61352539 C-272.82185848 509.11067718 -277.80563182 506.54165511 -282.75 503.875 C-290.41508653 499.74282247 -298.19746299 495.86477557 -306 492 C-316.11155952 486.98836634 -326.19973433 481.94254948 -336.1875 476.6875 C-336.94071533 476.29127441 -337.69393066 475.89504883 -338.4699707 475.48681641 C-354.72894982 466.88687655 -370.44978199 458.10324399 -376.5611515 439.56523228 C-378.28648914 433.68014859 -378.41896594 428.13722712 -378.38095093 422.03831482 C-378.3856309 420.87230824 -378.39031087 419.70630166 -378.39513266 418.50496155 C-378.40497286 415.29536405 -378.40150679 412.08611158 -378.39217401 408.87652314 C-378.38535308 405.40476542 -378.39587969 401.93305239 -378.40411377 398.46130371 C-378.41742058 391.67105062 -378.41458715 384.88089728 -378.40587585 378.09064036 C-378.39908821 372.57035272 -378.39818724 367.05009294 -378.4014473 361.52980232 C-378.401907 360.74277777 -378.40236669 359.95575323 -378.40284032 359.14487945 C-378.40379954 357.54584136 -378.40477218 355.94680328 -378.4057581 354.34776521 C-378.4143029 339.37060213 -378.40449186 324.39349422 -378.388357 309.41634018 C-378.37495202 296.57579097 -378.37728514 283.73532313 -378.39111328 270.89477539 C-378.40718067 255.96799842 -378.41348176 241.04126974 -378.40427649 226.11448532 C-378.40332088 224.52178419 -378.40237777 222.92908306 -378.4014473 221.33638191 C-378.40098447 220.55282677 -378.40052164 219.76927163 -378.40004479 218.9619724 C-378.39745858 213.45022174 -378.40181789 207.93850181 -378.40888596 202.42675591 C-378.41731393 195.70712822 -378.4149935 188.98760563 -378.39904372 182.26798993 C-378.3911788 178.84202086 -378.38803886 175.4162268 -378.39799118 171.99025917 C-378.40619647 168.27156577 -378.39589643 164.5533637 -378.38095093 160.83470154 C-378.38764309 159.75881804 -378.39433526 158.68293455 -378.40123022 157.57444853 C-378.30284717 144.94186555 -373.38273215 134.08125643 -364.82080078 124.75585938 C-358.25958603 118.42865952 -350.00040157 114.20001364 -341.9375 110.125 C-339.90338908 109.08122937 -337.86953678 108.0369546 -335.8359375 106.9921875 C-334.84432617 106.48526367 -333.85271484 105.97833984 -332.83105469 105.45605469 C-328.88661444 103.42736879 -324.97425527 101.34078162 -321.0625 99.25 C-312.47340043 94.68143838 -303.77185153 90.35026657 -295.05273438 86.03662109 C-287.14817919 82.12207882 -279.29633647 78.12645702 -271.5 74 C-262.4470924 69.20846307 -253.30685612 64.61344787 -244.12597656 60.07324219 C-229.92084017 53.04121701 -215.87970102 45.69653459 -201.8671875 38.2890625 C-192.79946083 33.49557468 -183.69631067 28.79866547 -174.50683594 24.24316406 C-154.50604007 14.36288219 -154.50604007 14.36288219 -134.6875 4.125 C-133.97335938 3.74722412 -133.25921875 3.36944824 -132.5234375 2.98022461 C-130.95571657 2.15073996 -129.38800904 1.32122997 -127.8203125 0.49169922 C-126.88960937 -0.00056152 -125.95890625 -0.49282227 -125 -1 C-124.43071777 -1.30137878 -123.86143555 -1.60275757 -123.27490234 -1.91326904 C-119.2694023 -4.03232719 -115.25803273 -6.13977794 -111.24111938 -8.23712158 C-109.89770593 -8.94060045 -108.55597412 -9.64730247 -107.21615601 -10.35760498 C-66.94278383 -31.69674263 -37.80760666 -20.25494971 0 0 Z " fill="#5B8CBB" transform="translate(378,23)"/>
<path d="M0 0 C0.99343703 1.99295013 1.96906957 3.99477935 2.9375 6 C3.75541016 7.670625 3.75541016 7.670625 4.58984375 9.375 C7.4601 16.75338725 7.14539023 24.48476617 7.13371277 32.29684448 C7.1371111 33.97485411 7.1371111 33.97485411 7.14057809 35.68676293 C7.14689457 39.42513769 7.14609024 43.16347597 7.14526367 46.90185547 C7.1482566 49.58628473 7.15163128 52.27071117 7.15544128 54.95513916 C7.16373001 61.48394697 7.16649531 68.01274574 7.16705366 74.54155837 C7.1675296 79.85020775 7.16958821 85.15885416 7.17275429 90.46750259 C7.18155544 105.53206507 7.18617442 120.59662043 7.18542381 135.66118549 C7.18536388 136.87811498 7.18536388 136.87811498 7.18530273 138.11962891 C7.18524141 139.3380509 7.18524141 139.3380509 7.18517885 140.58108748 C7.18477237 153.74614991 7.19434387 166.91118374 7.2084411 180.0762379 C7.22281551 193.60730998 7.22971072 207.13836811 7.22884732 220.66944802 C7.22851576 228.26082386 7.23124521 235.85216971 7.24202538 243.44353867 C7.25114432 249.90624396 7.25329413 256.36890565 7.24651595 262.8316146 C7.24325798 266.12602766 7.24426156 269.42034004 7.2518692 272.71474838 C7.2595961 276.29296933 7.25493949 279.87097192 7.24723816 283.44918823 C7.25238172 284.48072269 7.25752529 285.51225715 7.26282471 286.57505023 C7.19496735 300.87939982 3.37877154 313.78468811 -6.625 324.375 C-16.72564531 333.64648786 -29.17841307 339.20505044 -41.359375 345.19921875 C-46.57921155 347.7743975 -51.73529501 350.4565365 -56.875 353.1875 C-62.38466057 356.11023191 -67.90999622 358.98394857 -73.5 361.75 C-88.30947452 369.08687404 -102.93172456 376.8053138 -117.56054688 384.49438477 C-126.2003147 389.03508059 -134.87495152 393.48642509 -143.62011719 397.8203125 C-158.74161888 405.3159112 -173.82433883 412.86200928 -188.72460938 420.78955078 C-201.07114984 427.35759237 -213.46780176 433.79379532 -226 440 C-239.95540538 446.90587752 -239.95540538 446.90587752 -253.75 454.125 C-273.44055838 464.70957427 -291.94400747 474.44757944 -315 473 C-316.10859375 472.93941406 -317.2171875 472.87882812 -318.359375 472.81640625 C-333.32684454 471.00168087 -346.77173268 462.80952804 -360 456 C-361.09521973 455.43941895 -362.19043945 454.87883789 -363.31884766 454.30126953 C-373.18487404 449.24007628 -382.96628389 444.02357459 -392.73852539 438.78442383 C-398.93837808 435.47447074 -405.22759423 432.34953091 -411.5234375 429.22802734 C-438.67501176 415.76465801 -438.67501176 415.76465801 -452.01879883 408.66845703 C-458.88827915 405.02721282 -465.84181328 401.56461751 -472.80517578 398.10717773 C-479.57348301 394.7372857 -486.27104194 391.2499111 -492.94824219 387.70361328 C-499.50940334 384.23013842 -506.14249494 380.91297567 -512.79248047 377.61352539 C-517.82185848 375.11067718 -522.80563182 372.54165511 -527.75 369.875 C-535.41508653 365.74282247 -543.19746299 361.86477557 -551 358 C-561.11155952 352.98836634 -571.19973433 347.94254948 -581.1875 342.6875 C-581.94071533 342.29127441 -582.69393066 341.89504883 -583.4699707 341.48681641 C-609.68232468 327.62219021 -609.68232468 327.62219021 -617 316 C-617 315.34 -617 314.68 -617 314 C-616.45512939 313.74532959 -615.91025879 313.49065918 -615.34887695 313.22827148 C-601.98226143 306.95899841 -588.80727873 300.3819053 -575.71655273 293.56152344 C-568.30329921 289.70038631 -560.8631776 285.90181806 -553.375 282.1875 C-545.92567554 278.49020263 -538.54665361 274.68210757 -531.203125 270.77929688 C-524.07984444 267.00779564 -516.87499701 263.40689724 -509.64648438 259.84179688 C-508.78087891 259.41318359 -507.91527344 258.98457031 -507.0234375 258.54296875 C-506.18393555 258.12837402 -505.34443359 257.7137793 -504.47949219 257.28662109 C-501.25712334 255.61451753 -498.16714581 253.74248375 -495.09228516 251.8137207 C-492.33250739 250.74040223 -490.78445019 251.08722045 -488 252 C-485.859375 254.3359375 -485.859375 254.3359375 -483.75 257.375 C-482.9561774 258.4830269 -482.16056405 259.58977278 -481.36328125 260.6953125 C-480.76700928 261.53304199 -480.76700928 261.53304199 -480.15869141 262.38769531 C-465.36701532 282.9701287 -445.83761606 299.36286654 -424 312 C-422.92878906 312.65355469 -421.85757813 313.30710937 -420.75390625 313.98046875 C-411.23809855 319.6679515 -401.34913389 324.04740423 -391 328 C-389.64237549 328.51892822 -389.64237549 328.51892822 -388.25732422 329.04833984 C-367.01953678 336.9991975 -344.17004182 341.98523275 -321.4296875 342.2734375 C-320.52285217 342.28587494 -319.61601685 342.29831238 -318.68170166 342.31112671 C-297.19289275 342.54850761 -277.01707283 341.76735815 -256 337 C-254.85724609 336.76023437 -254.85724609 336.76023437 -253.69140625 336.515625 C-204.28068861 326.11336865 -156.80939969 293.99786892 -129 252 C-128.67 251.01 -128.34 250.02 -128 249 C-128.82757813 248.75507813 -129.65515625 248.51015625 -130.5078125 248.2578125 C-134.53473982 246.80739796 -138.12748725 244.92420173 -141.875 242.875 C-147.3081033 239.92128908 -152.79146167 237.08674358 -158.328125 234.33203125 C-167.88687913 229.57600318 -177.38038965 224.69500175 -186.875 219.8125 C-192.57521788 216.88223511 -198.27705457 213.95521697 -203.98278809 211.03570557 C-205.76292501 210.12172241 -207.53855839 209.19897926 -209.31347656 208.27490234 C-210.20260742 207.81680176 -211.09173828 207.35870117 -212.0078125 206.88671875 C-212.72855957 206.51119873 -213.44930664 206.13567871 -214.19189453 205.7487793 C-216.13578493 204.80869372 -216.13578493 204.80869372 -219 205 C-220.6162147 206.92377795 -222.05662486 208.8279955 -223.5 210.875 C-239.21407056 232.04894656 -264.68002141 245.28413231 -290.51953125 249.5859375 C-296.69778974 250.28347092 -302.91534998 250.22444588 -309.125 250.25 C-310.96964844 250.2809375 -310.96964844 250.2809375 -312.8515625 250.3125 C-341.45006718 250.43266178 -366.83573491 238.13108527 -387.25 218.7578125 C-397 208.98011364 -397 208.98011364 -397 205 C-397.66 205 -398.32 205 -399 205 C-410.40731299 182.8698128 -417.03971866 158.89043383 -410 134 C-400.74137509 106.96254321 -381.41810449 87.18128679 -355.94165039 74.67724609 C-349.79439421 71.78242449 -343.60660689 69.6165102 -337 68 C-335.24042969 67.55333984 -335.24042969 67.55333984 -333.4453125 67.09765625 C-304.84360412 60.75146942 -274.36292415 66.02024121 -249.5 81.3125 C-237.86417063 88.9117425 -226.4759196 98.1428438 -219 110 C-214.21052008 108.5536307 -209.87786719 106.53315939 -205.4609375 104.21875 C-204.74652496 103.84903076 -204.03211243 103.47931152 -203.29605103 103.09838867 C-200.98706066 101.90268889 -198.68108379 100.70129432 -196.375 99.5 C-193.19634989 97.85216022 -190.01614555 96.2073306 -186.8359375 94.5625 C-186.0599823 94.16067505 -185.2840271 93.7588501 -184.48455811 93.34484863 C-178.68252088 90.34321172 -172.85470377 87.39768482 -167 84.5 C-159.75342447 80.90821908 -152.5800373 77.19095731 -145.4375 73.39648438 C-143.99441361 72.63016456 -142.54980272 71.86670713 -141.10351562 71.10644531 C-139.6710971 70.35299583 -138.24283961 69.59159433 -136.81835938 68.82324219 C-136.12033203 68.45618164 -135.42230469 68.08912109 -134.703125 67.7109375 C-133.77741699 67.2166626 -133.77741699 67.2166626 -132.83300781 66.71240234 C-131 66 -131 66 -127 66 C-127 65.34 -127 64.68 -127 64 C-113.16944139 56.80645175 -99.33744434 49.62276284 -85.375 42.6875 C-77.5984779 38.82476923 -69.88671057 34.86410559 -62.22021484 30.7878418 C-54.85526592 26.8877913 -47.39620756 23.18410535 -39.93310547 19.47631836 C-33.4544881 16.24951867 -27.02134474 12.9493655 -20.625 9.5625 C-19.84970947 9.15209473 -19.07441895 8.74168945 -18.27563477 8.31884766 C-17.17046509 7.73369385 -17.17046509 7.73369385 -16.04296875 7.13671875 C-12.68614628 5.35957744 -9.32217486 3.59872172 -5.9375 1.875 C-5.20402344 1.50117188 -4.47054687 1.12734375 -3.71484375 0.7421875 C-2 0 -2 0 0 0 Z " fill="#1C598E" transform="translate(623,157)"/>
<path d="M0 0 C0.77152405 -0.00006042 1.5430481 -0.00012085 2.33795166 -0.00018311 C11.7760608 0.01033985 21.15925437 0.16371726 30.5625 1.0625 C31.38596924 1.14089111 32.20943848 1.21928223 33.05786133 1.30004883 C37.11105468 1.75310645 40.44467792 2.63188957 44.1875 4.1875 C47.04397211 4.8638151 49.92959602 5.38659856 52.8125 5.9375 C67.6979295 8.95236179 81.75913616 13.43468536 95.33398438 20.26220703 C97.24849554 21.21794956 99.17664538 22.14030916 101.109375 23.05859375 C115.89571177 30.1560354 129.52277773 38.76641151 142.1875 49.1875 C142.78949219 49.68121094 143.39148438 50.17492187 144.01171875 50.68359375 C156.06474503 60.64908558 166.47653045 71.40805142 176 83.8125 C176.53455811 84.49997314 177.06911621 85.18744629 177.61987305 85.89575195 C178.89366118 87.59959512 180.0520649 89.38849893 181.1875 91.1875 C180.1875 94.1875 180.1875 94.1875 177.80517578 95.65454102 C176.7582959 96.16170654 175.71141602 96.66887207 174.6328125 97.19140625 C173.47056152 97.76189697 172.30831055 98.3323877 171.11083984 98.92016602 C170.49150574 99.21851349 169.87217163 99.51686096 169.23406982 99.82424927 C166.64482437 101.07166471 164.06620781 102.34031306 161.48709106 103.60850525 C160.19290413 104.24485063 158.89820466 104.88015467 157.60299683 105.51441956 C152.53727602 107.99905905 147.53676947 110.58811469 142.5625 113.25 C133.97958801 117.8250785 125.28429784 122.16332543 116.56958008 126.48120117 C109.21827854 130.13412048 101.98769415 133.94261377 94.84765625 137.9921875 C92.1875 139.1875 92.1875 139.1875 89.1875 138.1875 C87.71484375 136.47265625 87.71484375 136.47265625 86.125 134.25 C69.15686998 111.89741118 42.3115571 98.36699025 14.7109375 94.47265625 C-5.92252259 92.80276425 -25.80385994 94.52962069 -44.8125 103.1875 C-45.94945312 103.69023437 -47.08640625 104.19296875 -48.2578125 104.7109375 C-67.08607957 113.52504934 -82.95091045 127.85913629 -92.8125 146.1875 C-93.21855469 146.91582031 -93.62460938 147.64414062 -94.04296875 148.39453125 C-103.96644739 167.06283781 -104.86425562 191.21785246 -99.09375 211.42578125 C-96.80073442 218.15801907 -93.75244447 224.2775833 -89.8125 230.1875 C-89.8125 231.1775 -89.8125 232.1675 -89.8125 233.1875 C-89.1525 233.1875 -88.4925 233.1875 -87.8125 233.1875 C-86.46620082 234.91716239 -85.18691327 236.69910579 -83.9375 238.5 C-68.34656416 259.94828641 -43.71163807 272.2038921 -17.97900391 276.76416016 C13.38351256 280.9571134 44.29353018 273.64369645 69.609375 254.6640625 C77.82300428 248.22438627 84.06544723 240.59152034 90.1875 232.1875 C94.70505809 232.81323192 98.42747649 234.60583217 102.4453125 236.65234375 C103.14185944 237.00137253 103.83840637 237.35040131 104.55606079 237.71000671 C106.8113061 238.84229731 109.0619656 239.98337873 111.3125 241.125 C112.86343941 241.9064195 114.41454676 242.68750576 115.96582031 243.46826172 C125.46250523 248.25709217 134.9086477 253.13446073 144.296875 258.1328125 C148.97827819 260.6202378 153.72608089 262.96373305 158.4765625 265.31640625 C166.11627279 269.1362614 173.64140923 273.18688563 181.1875 277.1875 C180.32179047 281.22458851 178.44331283 284.11988197 176.0625 287.4375 C175.63090576 288.04086182 175.19931152 288.64422363 174.75463867 289.26586914 C168.92503864 297.17927554 162.06052584 304.18470635 155.1875 311.1875 C154.5982373 311.79505127 154.00897461 312.40260254 153.40185547 313.02856445 C149.6950958 316.80761363 145.87111866 320.25836795 141.6875 323.5 C141.08711914 323.96656006 140.48673828 324.43312012 139.86816406 324.91381836 C109.509279 348.21021007 74.81536091 362.6317371 37.1875 369.1875 C36.17381348 369.37441406 35.16012695 369.56132812 34.11572266 369.75390625 C23.25041845 371.5591489 12.42693803 371.58299504 1.4375 371.5625 C0.44327026 371.56262085 -0.55095947 371.5627417 -1.57531738 371.56286621 C-17.33680078 371.53560708 -32.37104706 370.56696225 -47.8125 367.1875 C-48.64040039 367.01669922 -49.46830078 366.84589844 -50.32128906 366.66992188 C-59.35320692 364.79973182 -68.15109645 362.38186603 -76.8125 359.1875 C-77.61429688 358.89230469 -78.41609375 358.59710938 -79.2421875 358.29296875 C-86.94134799 355.32689872 -94.40140605 351.80353245 -101.8125 348.1875 C-102.4926416 347.85621094 -103.1727832 347.52492188 -103.87353516 347.18359375 C-146.60970107 326.11096823 -183.30824168 287.7189928 -198.8125 242.1875 C-200.63935012 236.55914624 -202.27255935 230.90030122 -203.8125 225.1875 C-204.11534912 224.11097168 -204.11534912 224.11097168 -204.42431641 223.01269531 C-208.2395377 209.16021833 -208.30334882 195.61381744 -207.89794922 181.31591797 C-207.82734796 178.73110504 -207.79516152 176.15188645 -207.78515625 173.56640625 C-207.35324235 156.13436135 -203.31182647 136.9799535 -195.8125 121.1875 C-195.52648926 120.57970703 -195.24047852 119.97191406 -194.94580078 119.34570312 C-182.36712983 92.81898803 -165.66741203 68.92765301 -142.6171875 50.4375 C-140.87668003 49.04121546 -139.14977011 47.6275698 -137.4453125 46.1875 C-130.07158113 40.03031017 -122.03659782 35.10689341 -113.8125 30.1875 C-113.16506836 29.79385254 -112.51763672 29.40020508 -111.85058594 28.99462891 C-100.98983719 22.42130843 -89.7180012 17.55831396 -77.8125 13.1875 C-77.12768555 12.93484375 -76.44287109 12.6821875 -75.73730469 12.421875 C-59.88569078 6.65473906 -43.50171884 3.3857676 -26.8125 1.1875 C-25.72424927 1.04066772 -25.72424927 1.04066772 -24.61401367 0.89086914 C-16.43518486 -0.07514783 -8.22290547 -0.0098368 0 0 Z " fill="#FEFEFE" transform="translate(313.8125,128.8125)"/>
<path d="M0 0 C2.140625 2.3359375 2.140625 2.3359375 4.25 5.375 C5.0438226 6.4830269 5.83943595 7.58977278 6.63671875 8.6953125 C7.23299072 9.53304199 7.23299072 9.53304199 7.84130859 10.38769531 C22.63298468 30.9701287 42.16238394 47.36286654 64 60 C65.07121094 60.65355469 66.14242187 61.30710937 67.24609375 61.98046875 C76.76190145 67.6679515 86.65086611 72.04740423 97 76 C97.90508301 76.34595215 98.81016602 76.6919043 99.74267578 77.04833984 C120.98046322 84.9991975 143.82995818 89.98523275 166.5703125 90.2734375 C167.47714783 90.28587494 168.38398315 90.29831238 169.31829834 90.31112671 C190.80710725 90.54850761 210.98292717 89.76735815 232 85 C232.76183594 84.84015625 233.52367187 84.6803125 234.30859375 84.515625 C281.94100496 74.48774896 327.64880597 44.29358433 355.61328125 4.65625 C357.30893823 2.63101462 358.67319358 1.28489133 361 0 C366.30317735 0.11267374 370.35943265 2.54263123 374.875 5.0625 C376.39629896 5.88956127 377.91845427 6.71504906 379.44140625 7.5390625 C380.20598145 7.95446289 380.97055664 8.36986328 381.75830078 8.79785156 C385.07711198 10.57761919 388.43868725 12.26493479 391.8125 13.9375 C392.45968994 14.25936279 393.10687988 14.58122559 393.77368164 14.9128418 C395.84833687 15.94348348 397.92408571 16.97189688 400 18 C403.27240237 19.62186052 406.54281735 21.24766454 409.8125 22.875 C410.54509033 23.237146 411.27768066 23.59929199 412.0324707 23.97241211 C417.64582605 26.76687259 423.1947224 29.67591867 428.73828125 32.60546875 C440.52826953 38.83335452 452.41187173 44.87574735 464.29492188 50.92358398 C467.12186083 52.36292119 469.94770052 53.80439861 472.7734375 55.24609375 C474.05618057 55.89764687 474.05618057 55.89764687 475.36483765 56.56236267 C479.32850983 58.58565507 483.22331417 60.63801332 487 63 C481.53228634 79.01058717 460.62004347 86.31943863 446.640625 93.19921875 C441.42078845 95.7743975 436.26470499 98.4565365 431.125 101.1875 C425.61533943 104.11023191 420.09000378 106.98394857 414.5 109.75 C399.69052548 117.08687404 385.06827544 124.8053138 370.43945312 132.49438477 C361.7996853 137.03508059 353.12504848 141.48642509 344.37988281 145.8203125 C329.25838112 153.3159112 314.17566117 160.86200928 299.27539062 168.78955078 C286.92885016 175.35759237 274.53219824 181.79379532 262 188 C248.04459462 194.90587752 248.04459462 194.90587752 234.25 202.125 C214.55944162 212.70957427 196.05599253 222.44757944 173 221 C171.89140625 220.93941406 170.7828125 220.87882813 169.640625 220.81640625 C154.67315546 219.00168087 141.22826732 210.80952804 128 204 C126.35717041 203.15912842 126.35717041 203.15912842 124.68115234 202.30126953 C114.81512596 197.24007628 105.03371611 192.02357459 95.26147461 186.78442383 C89.06162192 183.47447074 82.77240577 180.34953091 76.4765625 177.22802734 C49.32498824 163.76465801 49.32498824 163.76465801 35.98120117 156.66845703 C29.11172085 153.02721282 22.15818672 149.56461751 15.19482422 146.10717773 C8.42651699 142.7372857 1.72895806 139.2499111 -4.94824219 135.70361328 C-11.50940334 132.23013842 -18.14249494 128.91297567 -24.79248047 125.61352539 C-29.82185848 123.11067718 -34.80563182 120.54165511 -39.75 117.875 C-47.41508653 113.74282247 -55.19746299 109.86477557 -63 106 C-73.11155952 100.98836634 -83.19973433 95.94254948 -93.1875 90.6875 C-93.94071533 90.29127441 -94.69393066 89.89504883 -95.4699707 89.48681641 C-121.68232468 75.62219021 -121.68232468 75.62219021 -129 64 C-129 63.34 -129 62.68 -129 62 C-128.45512939 61.74532959 -127.91025879 61.49065918 -127.34887695 61.22827148 C-113.98226143 54.95899841 -100.80727873 48.3819053 -87.71655273 41.56152344 C-80.30329921 37.70038631 -72.8631776 33.90181806 -65.375 30.1875 C-57.92567554 26.49020263 -50.54665361 22.68210757 -43.203125 18.77929688 C-36.07984444 15.00779564 -28.87499701 11.40689724 -21.64648438 7.84179688 C-20.78087891 7.41318359 -19.91527344 6.98457031 -19.0234375 6.54296875 C-18.18393555 6.12837402 -17.34443359 5.7137793 -16.47949219 5.28662109 C-13.25712334 3.61451753 -10.16714581 1.74248375 -7.09228516 -0.1862793 C-4.33250739 -1.25959777 -2.78445019 -0.91277955 0 0 Z " fill="#1A4674" transform="translate(135,409)"/>
<path d="M0 0 C8.3163767 6.84409949 15.53934983 13.92315685 21 23.25 C20.40276123 23.53085449 19.80552246 23.81170898 19.19018555 24.10107422 C8.15018588 29.30493677 -2.82014529 34.58302358 -13.58349609 40.33959961 C-20.30405039 43.92086481 -27.11297279 47.30937387 -33.9375 50.6875 C-41.79118963 54.57965437 -49.54523168 58.58258749 -57.1875 62.875 C-64.82021879 67.15290466 -72.59457099 70.98471983 -80.51367188 74.70141602 C-89.34310815 78.87322253 -98.01828032 83.32029801 -106.6875 87.8125 C-107.39963654 88.18150421 -108.11177307 88.55050842 -108.8454895 88.93069458 C-109.55269135 89.29718109 -110.25989319 89.6636676 -110.98852539 90.04125977 C-112.38945446 90.7671501 -113.79041429 91.49298106 -115.19140625 92.21875 C-115.87050552 92.57061874 -116.5496048 92.92248749 -117.24928284 93.28501892 C-122.84795034 96.18140547 -128.47724696 99.01301316 -134.125 101.8125 C-139.99308703 104.72732289 -145.83300918 107.68632331 -151.625 110.75 C-152.24777832 111.07685791 -152.87055664 111.40371582 -153.51220703 111.74047852 C-156.00219544 113.07057628 -157.99098458 114.24098458 -160 116.25 C-171.40731299 94.1198128 -178.03971866 70.14043383 -171 45.25 C-161.74137509 18.21254321 -142.41810449 -1.56871321 -116.94165039 -14.07275391 C-110.79439421 -16.96757551 -104.60660689 -19.1334898 -98 -20.75 C-96.82695312 -21.04777344 -95.65390625 -21.34554687 -94.4453125 -21.65234375 C-61.19957625 -29.02895394 -26.7590393 -20.70438325 0 0 Z " fill="#5C8DBC" transform="translate(384,245.75)"/>
<path d="M0 0 C1.47726131 0.75669249 2.94772445 1.52675471 4.41235352 2.30761719 C5.20771011 2.71927124 6.00306671 3.13092529 6.82252502 3.55505371 C9.4015986 4.89339531 11.97133994 6.2486692 14.54125977 7.60449219 C16.31478216 8.52908157 18.08887339 9.45258063 19.86352539 10.375 C24.18459357 12.6240214 28.49872728 14.88597723 32.81097412 17.15185547 C35.9569699 18.80202719 39.10986041 20.43852672 42.26391602 22.07324219 C50.3670231 26.27625263 58.4412547 30.52746431 66.47875977 34.85449219 C71.60329865 37.60284824 76.74511215 40.09821951 82.10375977 42.35449219 C81.64588238 47.12698343 79.4039411 49.97881766 76.35375977 53.47949219 C75.86351318 54.04571289 75.3732666 54.61193359 74.86816406 55.1953125 C62.33056302 69.31517578 47.5215525 78.22855613 29.91625977 84.79199219 C29.03848877 85.12223389 28.16071777 85.45247559 27.25634766 85.79272461 C15.60528114 89.9205619 3.9466248 90.69967011 -8.33374023 90.66699219 C-9.54094727 90.68310547 -10.7481543 90.69921875 -11.99194336 90.71582031 C-40.92514605 90.73130089 -67.25195916 77.95640743 -87.51245117 57.81298828 C-91.08195592 54.05077562 -94.45583016 49.94091367 -96.89624023 45.35449219 C-95.67085642 41.67834075 -94.21128462 41.20767081 -90.88269043 39.50106812 C-90.17559937 39.15105743 -89.4685083 38.80104675 -88.73999023 38.44042969 C-88.00486206 38.06649078 -87.26973389 37.69255188 -86.5123291 37.30728149 C-84.14488278 36.10536593 -81.77090768 34.91706699 -79.39624023 33.72949219 C-77.09054176 32.56571892 -74.78627822 31.39914194 -72.48216248 30.23223877 C-70.94114141 29.45205088 -69.3995212 28.67304535 -67.85731506 27.89520264 C-61.76326575 24.81554979 -55.719659 21.64708377 -49.69750977 18.42929077 C-43.86316531 15.31503935 -37.96490483 12.34043941 -32.03295898 9.41699219 C-29.0354164 7.93457113 -26.06590281 6.40547149 -23.10327148 4.85449219 C-21.89562134 4.22994141 -21.89562134 4.22994141 -20.66357422 3.59277344 C-19.10731057 2.7872454 -17.55572355 1.97259491 -16.00976562 1.14746094 C-15.29941162 0.78265625 -14.58905762 0.41785156 -13.85717773 0.04199219 C-13.23633301 -0.28414063 -12.61548828 -0.61027344 -11.97583008 -0.94628906 C-7.55671009 -2.43212607 -4.14117998 -1.93779086 0 0 Z " fill="#1B4674" transform="translate(321.896240234375,316.6455078125)"/>
<path d="M0 0 C7.92 0 15.84 0 24 0 C24 6.93 24 13.86 24 21 C31.92 21 39.84 21 48 21 C48 27.93 48 34.86 48 42 C40.08 42 32.16 42 24 42 C24 48.93 24 55.86 24 63 C16.08 63 8.16 63 0 63 C0 56.07 0 49.14 0 42 C-7.92 42 -15.84 42 -24 42 C-24 35.07 -24 28.14 -24 21 C-16.08 21 -8.16 21 0 21 C0 14.07 0 7.14 0 0 Z " fill="#FBFCFD" transform="translate(477,283)"/>
<path d="M0 0 C7.92 0 15.84 0 24 0 C24 6.93 24 13.86 24 21 C31.92 21 39.84 21 48 21 C48 27.93 48 34.86 48 42 C40.08 42 32.16 42 24 42 C24 48.93 24 55.86 24 63 C16.41 63 8.82 63 1 63 C1 56.07 1 49.14 1 42 C-7.25 42 -15.5 42 -24 42 C-24 35.07 -24 28.14 -24 21 C-16.08 21 -8.16 21 0 21 C0 14.07 0 7.14 0 0 Z " fill="#FCFDFD" transform="translate(564,283)"/>
<path d="M0 0 C0.99 0.33 1.98 0.66 3 1 C3 1.66 3 2.32 3 3 C4.175625 3.185625 4.175625 3.185625 5.375 3.375 C8 4 8 4 10 6 C9.01 6.495 9.01 6.495 8 7 C5.8359375 6.00390625 5.8359375 6.00390625 3.375 4.5625 C2.55773437 4.08941406 1.74046875 3.61632812 0.8984375 3.12890625 C0.27195313 2.75636719 -0.35453125 2.38382813 -1 2 C-0.67 1.34 -0.34 0.68 0 0 Z " fill="#1E3D5B" transform="translate(183,569)"/>
<path d="M0 0 C2.9375 0.8125 2.9375 0.8125 6 2 C6.33 2.99 6.66 3.98 7 5 C4.0625 4.1875 4.0625 4.1875 1 3 C0.67 2.01 0.34 1.02 0 0 Z " fill="#1D3D5F" transform="translate(260,609)"/>
</svg>
