<?xml version="1.0" encoding="UTF-8"?>
<svg version="1.1" xmlns="http://www.w3.org/2000/svg" width="200" height="200">
<path d="M0 0 C66 0 132 0 200 0 C200 66 200 132 200 200 C134 200 68 200 0 200 C0 134 0 68 0 0 Z " fill="#373737" transform="translate(0,0)"/>
<path d="M0 0 C66 0 132 0 200 0 C200 66 200 132 200 200 C134 200 68 200 0 200 C0 134 0 68 0 0 Z M25.58154297 39.17578125 C21.672279 43.68489215 18.79581527 48.74151568 16 54 C15.44828125 54.98613281 14.8965625 55.97226562 14.328125 56.98828125 C4.04723462 76.20133134 1.10897924 101.96522171 6.75 123.125 C7.45119197 125.43206869 8.19515762 127.72701411 9 130 C9.46792969 131.38251953 9.46792969 131.38251953 9.9453125 132.79296875 C18.72135456 156.57678023 36.71005398 176.1778861 59.375 187.25 C81.42567585 197.00011812 108.27964838 198.70016766 131.2421875 190.8984375 C134.23654104 189.71745837 137.1118848 188.41985552 140 187 C140.92296875 186.54625 141.8459375 186.0925 142.796875 185.625 C161.49250174 175.9074991 174.85093257 162.25239346 185 144 C185.53496094 143.04738281 186.06992188 142.09476563 186.62109375 141.11328125 C196.36633158 122.69275753 198.66404865 95.99617106 192.96484375 75.95703125 C192.64644531 74.98121094 192.32804688 74.00539063 192 73 C191.50693359 71.33517578 191.50693359 71.33517578 191.00390625 69.63671875 C186.5493248 55.77973355 179.17733359 44.33337447 169 34 C168.25363281 33.16984375 167.50726563 32.3396875 166.73828125 31.484375 C160.50795346 24.77003827 153.67458753 20.30181454 145.71435547 15.94140625 C144.25608768 15.14062576 142.81540454 14.30795616 141.37890625 13.46875 C101.8248889 -8.40935741 54.18225234 8.31903628 25.58154297 39.17578125 Z " fill="#FCFCFC" transform="translate(0,0)"/>
<path d="M0 0 C8.39055603 5.22953058 12.69226113 13.87243449 15.375 23.1875 C16 27 16 27 16 36 C-1.49 36 -18.98 36 -37 36 C-35.44897713 47.56759195 -35.44897713 47.56759195 -29 56 C-23.08278871 59.78701522 -16.8819569 59.6825854 -10 59 C-4.89884102 57.82491159 -1.87673881 55.36838116 1 51 C1.66 49.68 2.32 48.36 3 47 C6.63 47 10.26 47 14 47 C13.65843077 53.66059993 10.08984762 59.0761956 5.328125 63.58203125 C-3.46868298 70.26034189 -13.28572345 71.37728549 -24 70 C-32.74230985 67.77737885 -39.13963316 63.67774733 -44.203125 56.23046875 C-50.47749797 45.10984502 -51.71096032 31.53759827 -48.4375 19.375 C-45.09882639 9.53408442 -39.24844476 2.77288604 -30 -2 C-20.02993854 -5.9206593 -9.42632709 -4.93409309 0 0 Z " fill="#F5F5F5" transform="translate(80,67)"/>
<path d="M0 0 C5.1844044 -0.66830213 9.82861063 -0.91631543 15 0 C18.74215194 3.0293611 20.68011876 6.83207777 23 11 C24.57496864 13.43115965 26.22390493 15.8076707 27.875 18.1875 C28.2570459 18.76395264 28.6390918 19.34040527 29.03271484 19.93432617 C29.97057792 21.32549677 30.97949743 22.66826532 32 24 C32.66 24 33.32 24 34 24 C35.47801111 21.95902172 35.47801111 21.95902172 37 19.3125 C37.62777344 18.3225 38.25554687 17.3325 38.90234375 16.3125 C39.97523825 14.61824574 41.04650369 12.92252894 42.07861328 11.203125 C44.67161012 6.9432829 47.2030949 3.27196386 51 0 C55.85990615 -1.06199822 60.11675917 -0.8232553 65 0 C63.37254294 3.67490304 61.09913379 6.59527924 58.625 9.75 C57.73343087 10.89379594 56.84285361 12.03836553 55.953125 13.18359375 C55.47939453 13.79315918 55.00566406 14.40272461 54.51757812 15.03076172 C51.76832151 18.59824947 49.07292616 22.20612963 46.375 25.8125 C45.84213379 26.52438477 45.30926758 27.23626953 44.76025391 27.96972656 C43.50615589 29.6459758 42.25297351 31.32291003 41 33 C43.23672401 37.69646063 46.18792509 41.84502573 49.125 46.125 C49.70886475 46.97795654 50.29272949 47.83091309 50.89428711 48.7097168 C54.54574262 54.00288851 58.31637426 59.09150624 62.41015625 64.05078125 C68 70.9041769 68 70.9041769 68 74 C62.88459036 75.20986867 57.95316672 76.06097823 53 74 C47.96978796 69.42600735 44.71683289 63.18022442 41.36572266 57.33837891 C39.6281067 54.3632474 37.70408188 51.60500116 35.6875 48.8125 C35.15511719 48.05582031 34.62273437 47.29914063 34.07421875 46.51953125 C33.71972656 46.01808594 33.36523438 45.51664063 33 45 C29.86041781 47.94436598 27.50642965 51.01245929 25.14453125 54.60546875 C24.44005859 55.67087891 23.73558594 56.73628906 23.00976562 57.83398438 C22.27713029 58.95168302 21.54471087 60.06952323 20.8125 61.1875 C19.36246341 63.39050702 17.90980141 65.59176135 16.45703125 67.79296875 C15.81741455 68.7677417 15.17779785 69.74251465 14.51879883 70.74682617 C13 73 13 73 12 74 C9.64686445 74.07271741 7.29166332 74.08370868 4.9375 74.0625 C3.00197266 74.04896484 3.00197266 74.04896484 1.02734375 74.03515625 C0.02832031 74.02355469 -0.97070312 74.01195312 -2 74 C-0.4230338 69.0896861 2.44499558 65.5162923 5.5625 61.5 C10.27348543 55.33439201 14.79089777 49.08337533 19.16015625 42.671875 C20.72256117 40.4029048 22.32746115 38.18836859 24 36 C18.34614593 24.21894594 9.37707764 13.84781042 1.21484375 3.7421875 C0 2 0 2 0 0 Z " fill="#F6F6F6" transform="translate(101,63)"/>
<path d="M0 0 C4.71908385 2.89580145 7.26754797 6.8026439 9 12 C9 13.65 9 15.3 9 17 C-4.2 17 -17.4 17 -31 17 C-29.97451118 7.77060059 -29.39906113 5.64389242 -23 0 C-15.77533942 -5.02585084 -7.52023549 -3.80959298 0 0 Z " fill="#3A3A3A" transform="translate(74,76)"/>
<path d="M0 0 C2.64 0.66 5.28 1.32 8 2 C5.33440687 3.77706209 2.9719385 4.87548273 0 6 C-1.125 2.25 -1.125 2.25 0 0 Z " fill="#444444" transform="translate(128,9)"/>
<path d="M0 0 C1.32 0.33 2.64 0.66 4 1 C3.34 2.65 2.68 4.3 2 6 C0.68 5.34 -0.64 4.68 -2 4 C-1.34 2.68 -0.68 1.36 0 0 Z " fill="#424242" transform="translate(133,82)"/>
<path d="M0 0 C0.33 0.66 0.66 1.32 1 2 C-0.5039544 4.79305817 -2.24016054 7.36024081 -4 10 C-4.66 10 -5.32 10 -6 10 C-4.34832443 6.4213696 -2.21713508 3.25179812 0 0 Z " fill="#5F5F5F" transform="translate(153,80)"/>
</svg>
