<?xml version="1.0" encoding="UTF-8"?>
<svg version="1.1" xmlns="http://www.w3.org/2000/svg" width="1024" height="1024">
<path d="M0 0 C337.92 0 675.84 0 1024 0 C1024 337.92 1024 675.84 1024 1024 C686.08 1024 348.16 1024 0 1024 C0 686.08 0 348.16 0 0 Z " fill="#E435AA" transform="translate(0,0)"/>
<path d="M0 0 C337.92 0 675.84 0 1024 0 C1024 337.92 1024 675.84 1024 1024 C686.08 1024 348.16 1024 0 1024 C0 686.08 0 348.16 0 0 Z M443.82446289 41.32495117 C426.07760803 61.94595002 421.1507198 85.5242532 423 112 C423.58735014 116.77233477 424.59471168 121.39935372 426 126 C424.94643311 126.39264038 424.94643311 126.39264038 423.87158203 126.79321289 C420.77700269 128.09371499 417.96477357 129.63553421 415.0546875 131.30859375 C414.49158875 131.63118668 413.92848999 131.9537796 413.34832764 132.28614807 C411.52206688 133.33346837 409.69851416 134.38540609 407.875 135.4375 C406.60870817 136.16496944 405.34226824 136.89218112 404.07568359 137.61914062 C395.39848685 142.60306256 386.73652257 147.61348916 378.08203125 152.63671875 C374.50206059 154.71282017 370.909624 156.76623185 367.3125 158.8125 C361.10040312 162.35404307 354.92393135 165.95489202 348.75 169.5625 C336.962797 176.44925932 325.14229784 183.27719018 313.31298828 190.09130859 C284.6732571 206.58715999 284.6732571 206.58715999 256.09716797 223.19287109 C254.04760816 224.38874384 251.99716466 225.58310346 249.94580078 226.77587891 C245.07466694 229.60983583 240.21758065 232.46243391 235.390625 235.37109375 C234.52050781 235.88994141 233.65039062 236.40878906 232.75390625 236.94335938 C231.12547347 237.91508408 229.50270049 238.89637896 227.88671875 239.88867188 C227.16613281 240.31599609 226.44554687 240.74332031 225.703125 241.18359375 C225.08083008 241.56056396 224.45853516 241.93753418 223.81738281 242.32592773 C221.47443638 243.19493299 220.30876465 242.88096033 218 242 C215.984375 240.25 215.984375 240.25 213.75 238 C195.18163299 220.85156694 171.2010933 215.99898263 146.64453125 216.86083984 C129.03816043 217.78731984 112.47126714 224.66902764 99 236 C98.08992188 236.73734375 97.17984375 237.4746875 96.2421875 238.234375 C79.3873578 252.60088723 67.86766886 273.84311974 66 296 C64.69748778 322.50788376 71.06449788 346.0643921 88.609375 366.4140625 C100.95229801 379.76539425 116.00614476 389.40122895 134 393 C134 471.54 134 550.08 134 631 C130.37 631.99 126.74 632.98 123 634 C120.23449429 635.14025515 117.64519367 636.26931704 115 637.625 C114.31848877 637.97199951 113.63697754 638.31899902 112.93481445 638.67651367 C106.59585897 642.02118117 101.25183786 646.12159085 96 651 C94.61361328 652.24910156 94.61361328 652.24910156 93.19921875 653.5234375 C76.7086499 669.07885653 66.76390121 690.60385217 65.76171875 713.3046875 C65.41384095 727.81751677 67.20531954 741.9868664 74 755 C74.59361328 756.35738281 74.59361328 756.35738281 75.19921875 757.7421875 C79.13576976 766.42741465 84.60248322 773.05493732 91 780 C92.05767578 781.16402344 92.05767578 781.16402344 93.13671875 782.3515625 C107.56014917 797.5064042 128.19726085 806.57083994 149.03125 807.203125 C173.25045444 807.55604601 193.8620422 802.40096013 213 787 C214.19244293 785.81709662 215.36502789 784.61315139 216.5 783.375 C217.325 782.59125 218.15 781.8075 219 781 C222.68315068 781.30746499 225.32878208 782.55272406 228.45703125 784.44921875 C229.31022949 784.9606543 230.16342773 785.47208984 231.04248047 785.99902344 C231.95658691 786.5562207 232.87069336 787.11341797 233.8125 787.6875 C235.78992992 788.87442237 237.76781072 790.06059383 239.74609375 791.24609375 C240.77202637 791.86339355 241.79795898 792.48069336 242.85498047 793.11669922 C248.00519275 796.20074964 253.18861582 799.22729369 258.375 802.25 C259.38675293 802.84031006 260.39850586 803.43062012 261.44091797 804.03881836 C267.69778619 807.68176733 273.98008381 811.27326999 280.30883789 814.78979492 C283.7887648 816.73010948 287.23035898 818.72191537 290.6484375 820.76953125 C291.42646729 821.23456055 292.20449707 821.69958984 293.00610352 822.17871094 C294.51010687 823.08108111 296.0107799 823.98903244 297.50756836 824.90332031 C301.46980974 827.35600178 301.46980974 827.35600178 306 828 C306 828.66 306 829.32 306 830 C308.08940328 831.16593862 310.18042964 832.32882134 312.2734375 833.48828125 C314.17697801 834.54368265 316.07781332 835.6039715 317.9765625 836.66796875 C318.95367187 837.21066406 319.93078125 837.75335937 320.9375 838.3125 C321.85402344 838.82425781 322.77054687 839.33601562 323.71484375 839.86328125 C325.87306998 841.14845868 325.87306998 841.14845868 328 841 C328 841.66 328 842.32 328 843 C328.58523438 843.31710937 329.17046875 843.63421875 329.7734375 843.9609375 C332.85234779 845.63445931 335.92704255 847.31558193 339 849 C339.67514648 849.3697998 340.35029297 849.73959961 341.04589844 850.12060547 C350.84248132 855.49613234 360.50500413 861.0395663 370.06103516 866.83056641 C378.95395245 872.19408616 387.89616112 877.45499446 397.046875 882.3671875 C402.42557669 885.34112573 407.69666701 888.50082427 412.984375 891.6328125 C414.32290789 892.42188988 415.66144937 893.2109527 417 894 C417.66064453 894.39413086 418.32128906 894.78826172 419.00195312 895.19433594 C422.27827712 897.29487343 422.27827712 897.29487343 426 898 C425.68385742 899.06335571 425.68385742 899.06335571 425.36132812 900.14819336 C423.17902763 908.0461956 422.45458068 915.38531943 422.5 923.5625 C422.50644531 924.78541748 422.51289063 926.00833496 422.51953125 927.26831055 C422.92755484 947.69767596 429.5440816 965.50269227 443 981 C443.99773437 982.21236328 443.99773437 982.21236328 445.015625 983.44921875 C459.07533029 999.9617863 480.08326737 1011.32837986 501.82910156 1013.25 C518.69831854 1014.14999157 534.67878547 1012.5213235 550 1005 C550.91136719 1004.55785156 551.82273437 1004.11570312 552.76171875 1003.66015625 C563.31108875 998.22745644 572.67525873 991.37349315 580 982 C580.87398437 980.95392578 580.87398437 980.95392578 581.765625 979.88671875 C598.41981954 959.50343283 602.80311675 935.62053294 601 910 C600.20103818 904.82885968 598.76757782 899.92396678 597 895 C597.69480469 894.73445312 598.38960937 894.46890625 599.10546875 894.1953125 C602.25676076 892.89396924 605.27000171 891.41296617 608.3125 889.875 C609.91544922 889.06675781 609.91544922 889.06675781 611.55078125 888.2421875 C612.35902344 887.83226562 613.16726563 887.42234375 614 887 C614 886.34 614 885.68 614 885 C614.71196533 884.73082764 615.42393066 884.46165527 616.1574707 884.18432617 C619.06020847 882.97491443 621.7327318 881.57887268 624.48046875 880.05078125 C625.54982666 879.4570874 626.61918457 878.86339355 627.72094727 878.25170898 C629.43689087 877.29180054 629.43689087 877.29180054 631.1875 876.3125 C632.38533089 875.64460474 633.58316624 874.97671749 634.78100586 874.30883789 C649.89879464 865.86368673 664.93992338 857.26929527 679.77319336 848.33325195 C682.74288544 846.55521353 685.74066222 844.83518464 688.75 843.125 C689.34087402 842.78823242 689.93174805 842.45146484 690.54052734 842.10449219 C693.4587374 840.44158426 696.38042089 838.7850577 699.3046875 837.1328125 C707.16039638 832.67816347 714.91722094 828.07988521 722.63330078 823.38769531 C727.73674098 820.2997779 732.91154158 817.39371378 738.15893555 814.55810547 C743.101653 811.84740488 747.95228511 808.98016539 752.8125 806.125 C754.93984455 804.8797647 757.06744695 803.6349698 759.1953125 802.390625 C760.20368164 801.80087891 761.21205078 801.21113281 762.25097656 800.60351562 C766.59885854 798.06737985 770.96503669 795.56556333 775.34765625 793.08984375 C778.37868106 791.37048024 781.37468578 789.59534494 784.37109375 787.81640625 C785.794823 786.98036865 785.794823 786.98036865 787.24731445 786.12744141 C789.13576054 785.01843795 791.01865078 783.89990766 792.89526367 782.77099609 C793.75740479 782.26777832 794.6195459 781.76456055 795.5078125 781.24609375 C796.27754395 780.78904053 797.04727539 780.3319873 797.84033203 779.86108398 C800.4054601 778.83833848 801.47172217 778.96806362 804 780 C805.796875 781.71484375 805.796875 781.71484375 807.75 783.9375 C822.49091965 799.08855981 843.72251409 807.06264559 864.63769531 807.38012695 C890.5498238 807.33565534 913.30393031 799.72728182 932 781 C938.33741357 774.56862148 943.54889791 767.86212254 948 760 C948.45117188 759.20722656 948.90234375 758.41445313 949.3671875 757.59765625 C956.42994847 743.71340874 959.14946842 727.41547371 958 712 C957.91621094 710.68644531 957.83242188 709.37289062 957.74609375 708.01953125 C956.25487016 690.04624781 948.43902053 673.78481045 937 660 C936.56429687 659.41863281 936.12859375 658.83726562 935.6796875 658.23828125 C925.50859081 645.17420796 907.75831047 635.01889797 892 631 C891.34 631 890.68 631 890 631 C890 552.46 890 473.92 890 393 C893.63 392.01 897.26 391.02 901 390 C910.16216483 386.23015093 918.24254566 381.14502112 926 375 C926.63292969 374.52046875 927.26585937 374.0409375 927.91796875 373.546875 C943.87124753 360.84266215 955.32388753 338.77305542 957.75390625 318.53125 C959.72710123 290.21746803 953.55033502 266.81380542 934.74658203 245.0637207 C921.23827567 230.01915113 900.1841173 219.39595637 880 217 C856.05531569 215.8194299 834.55672912 219.21173261 815 234 C812.36311332 236.4019916 809.79026521 238.83197115 807.2890625 241.375 C805 243 805 243 802.45703125 242.9140625 C799.96445988 241.9867784 798.19442063 240.95388776 796.0625 239.375 C792.34969704 236.77059275 788.5677188 234.72999339 784.484375 232.76171875 C777.49951858 229.33563975 770.84248411 225.46815924 764.1875 221.4375 C761.82813732 220.02034182 759.46557998 218.60859667 757.1015625 217.19921875 C756.50934402 216.84606598 755.91712555 216.49291321 755.30696106 216.12905884 C749.28946112 212.55454761 743.18398954 209.14285044 737.0625 205.75 C728.76259342 201.14576667 720.57778519 196.39844092 712.46411133 191.47436523 C701.06093811 184.57827528 689.40066964 178.12404895 677.76171875 171.63671875 C669.21639455 166.86661015 660.77447143 161.93815356 652.35668945 156.94628906 C639.76288751 149.47958222 627.1033615 142.13484999 614.31225586 135.01098633 C610.86720143 133.08397132 607.49830932 131.08651623 604.1875 128.9375 C601.19443167 126.74029235 601.19443167 126.74029235 598 127 C598.32484375 126.01 598.32484375 126.01 598.65625 125 C604.71495834 103.45792592 601.92048924 78.1313941 591.625 58.359375 C582.25760351 42.1700702 570.40993992 30.02803905 554 21 C553.19820312 20.55785156 552.39640625 20.11570312 551.5703125 19.66015625 C515.28023409 0.58757511 470.63619343 11.57415936 443.82446289 41.32495117 Z " fill="#FEFEFE" transform="translate(0,0)"/>
<path d="M0 0 C0.43231934 0.78947021 0.86463867 1.57894043 1.31005859 2.39233398 C10.41248684 18.99791922 19.6406172 35.47854549 29.4375 51.6875 C35 60.93732295 35 60.93732295 35 64 C35.66 64 36.32 64 37 64 C37.3403125 64.63164062 37.680625 65.26328125 38.03125 65.9140625 C41.84730967 72.95753434 45.78942115 79.92362933 49.77832031 86.87011719 C52.19124274 91.07681888 54.59465765 95.28896121 57 99.5 C58.03642357 101.31382195 59.07288131 103.12762437 60.109375 104.94140625 C64.40104167 112.45182292 68.69270833 119.96223958 72.984375 127.47265625 C73.31727539 128.0550708 73.65017578 128.63748535 73.99316406 129.23754883 C74.98601076 130.97551205 75.97739098 132.71431276 76.96875 134.453125 C78.39453266 136.94964249 79.8343148 139.43756083 81.28125 141.921875 C81.6525 142.56253906 82.02375 143.20320312 82.40625 143.86328125 C83.12150009 145.09708766 83.84011737 146.32894978 84.5625 147.55859375 C87 151.7750756 87 151.7750756 87 154 C87.66 154 88.32 154 89 154 C90.00484204 155.95585325 91.00373805 157.91476237 92 159.875 C92.8353125 161.51082031 92.8353125 161.51082031 93.6875 163.1796875 C95 166 95 166 95 168 C95.66 168 96.32 168 97 168 C97.30067383 168.56170898 97.60134766 169.12341797 97.91113281 169.70214844 C103.92606126 180.90910128 110.09079326 191.98134817 116.69262695 202.85375977 C121.80953164 211.29128985 126.65212675 219.87168964 131.3828125 228.53125 C133.71460418 232.79333281 136.18283352 236.93687686 138.75 241.0625 C141.88888355 246.12521541 144.89285414 251.24535246 147.8125 256.4375 C148.18536133 257.09951416 148.55822266 257.76152832 148.94238281 258.44360352 C155 269.28333327 155 269.28333327 155 272 C155.66 272 156.32 272 157 272 C157.54188965 272.97102661 157.54188965 272.97102661 158.09472656 273.96166992 C159.81207616 277.03754828 161.53090376 280.1125975 163.25 283.1875 C163.87737061 284.31051514 164.50474121 285.43353027 165.15112305 286.59057617 C168.25886451 292.14349691 171.38299403 297.68525165 174.56640625 303.1953125 C175.11458008 304.14510986 175.66275391 305.09490723 176.22753906 306.07348633 C177.26563153 307.86744187 178.30780164 309.65904547 179.35449219 311.44799805 C179.82145508 312.255354 180.28841797 313.06270996 180.76953125 313.89453125 C181.38211792 314.94411011 181.38211792 314.94411011 182.00708008 316.01489258 C183.00164004 318.00327886 183.55095786 319.82897092 184 322 C184.66 322 185.32 322 186 322 C187.00484204 323.95585325 188.00373805 325.91476237 189 327.875 C189.556875 328.96554687 190.11375 330.05609375 190.6875 331.1796875 C192 334 192 334 192 336 C192.66 336 193.32 336 194 336 C194.54092285 336.99749268 194.54092285 336.99749268 195.09277344 338.01513672 C198.75496594 344.75116563 202.47547994 351.45131877 206.25 358.125 C207.1018689 359.63139038 207.1018689 359.63139038 207.97094727 361.16821289 C212.03026728 368.32839443 216.16278572 375.44077411 220.35546875 382.5234375 C224.1134566 388.8728922 227.82080452 395.25195413 231.53564453 401.62670898 C234.58335485 406.85648091 237.63356042 412.08474003 240.69140625 417.30859375 C251.99984542 436.63714884 251.99984542 436.63714884 256.9284668 445.5246582 C258.68452406 448.6890759 260.48022417 451.81693867 262.359375 454.91015625 C262.73980957 455.54550293 263.12024414 456.18084961 263.51220703 456.83544922 C264.55262411 458.56704289 265.60780772 460.28974018 266.6640625 462.01171875 C268.15473618 465.3461204 268.28392582 466.62461131 267 470 C264.5625 472.625 264.5625 472.625 262 475 C261.34 475.99 260.68 476.98 260 478 C259.34 478 258.68 478 258 478 C257.59201172 479.0828125 257.59201172 479.0828125 257.17578125 480.1875 C256.02391737 482.94278902 254.68030168 485.4161533 253.1875 488 C249.16131376 495.27279231 246.01744407 502.93022373 244 511 C65.8 511 -112.4 511 -296 511 C-297.65 506.05 -299.3 501.1 -301 496 C-305.48997703 486.8537505 -310.2513787 478.0978949 -318 471.3125 C-320 469 -320 469 -320.125 466.25 C-317.49875579 458.66307228 -312.72400219 451.83102565 -308.5625 445 C-303.34720353 436.37914422 -298.40445077 427.62591947 -293.51855469 418.81518555 C-288.26866011 409.38923846 -282.78959608 400.10939981 -277.24121094 390.85717773 C-276.28069824 389.25144897 -276.28069824 389.25144897 -275.30078125 387.61328125 C-274.73528564 386.67266846 -274.16979004 385.73205566 -273.5871582 384.76293945 C-271.93888439 381.89360939 -270.45179107 378.97289771 -269 376 C-268.34 376 -267.68 376 -267 376 C-266.79375 375.236875 -266.5875 374.47375 -266.375 373.6875 C-263.31199046 365.47306532 -258.44610424 357.98688129 -254.01953125 350.4453125 C-250.19711006 343.92427673 -246.42093592 337.37633974 -242.63769531 330.83251953 C-241.48631885 328.84112571 -240.334595 326.84993273 -239.18261719 324.85888672 C-230.07213591 309.1322454 -230.07213591 309.1322454 -221.125 293.3125 C-217.95617073 287.63388153 -214.6575524 282.04558759 -211.29223633 276.48144531 C-208.22348881 271.39984912 -205.27400331 266.25657725 -202.34375 261.09375 C-198.78794802 254.85527891 -195.13436052 248.67310163 -191.50537109 242.47705078 C-186.68862565 234.230999 -181.97991351 225.92732662 -177.35083008 217.57446289 C-175.16013517 213.65499857 -172.96984553 209.84117777 -170.31640625 206.21484375 C-168.18159503 203.25202818 -166.56805654 200.41257308 -165 197.125 C-162.49885535 191.98015842 -159.83508215 186.96766606 -157 182 C-156.34 182 -155.68 182 -155 182 C-154.9175 181.319375 -154.835 180.63875 -154.75 179.9375 C-153.77667472 176.1253093 -152.04192545 173.35929671 -150 170 C-149.34 170 -148.68 170 -148 170 C-147.79375 169.236875 -147.5875 168.47375 -147.375 167.6875 C-143.96281842 158.5366494 -138.3795406 150.14570939 -133.4375 141.75 C-128.63624953 133.56034704 -123.9031607 125.33717858 -119.25 117.0625 C-112.92093819 105.81348466 -106.43644305 94.66540597 -99.75 83.625 C-97.24532748 79.46920258 -94.92446142 75.22879651 -92.6171875 70.9609375 C-87.67998383 61.92132305 -82.45528468 53.04402904 -77.21289062 44.17919922 C-74.52377108 39.62128355 -71.87092514 35.0439174 -69.23828125 30.453125 C-68.90988754 29.88096252 -68.58149384 29.30880005 -68.2431488 28.71929932 C-66.60942585 25.8725963 -64.97878977 23.02425627 -63.35327148 20.17285156 C-54.18211207 4.18211207 -54.18211207 4.18211207 -51 1 C-49.42450137 1.088993 -47.85268868 1.24423853 -46.28515625 1.42578125 C-39.66058741 2.09027119 -33.09133375 2.18377236 -26.4375 2.1875 C-25.28314453 2.19974609 -24.12878906 2.21199219 -22.93945312 2.22460938 C-16.75075692 2.23514034 -11.0369604 1.86720031 -5.00805664 0.4309082 C-3 0 -3 0 0 0 Z " fill="#FEFEFE" transform="translate(538,186)"/>
<path d="M0 0 C178.2 0 356.4 0 540 0 C540.33 2.31 540.66 4.62 541 7 C539.96101562 7.58007812 538.92203125 8.16015625 537.8515625 8.7578125 C531.0140923 12.58433186 524.20797103 16.4344732 517.51513672 20.51049805 C514.99048777 22.00563328 512.43233915 23.40840307 509.84765625 24.796875 C504.40018858 27.7556288 499.06888642 30.87995643 493.75 34.0625 C485.98936716 38.67822718 478.18232996 43.19805509 470.3125 47.625 C457.59443884 54.78024893 444.91916259 62.0008358 432.4375 69.5625 C426.48388704 73.16681935 420.43042908 76.56020253 414.33276367 79.91381836 C405.64910933 84.7097617 397.10638489 89.74488334 388.546875 94.7578125 C384.37892485 97.19816541 380.19908665 99.61368978 376 102 C368.44239212 106.29728013 360.94083789 110.69027216 353.43554688 115.078125 C351.48792298 116.21646225 349.53831521 117.35141428 347.58642578 118.48242188 C345.99837657 119.41420533 344.42088277 120.36464407 342.86279297 121.34570312 C338.58771449 123.99786674 338.58771449 123.99786674 335.84765625 124.0078125 C333.32188476 122.63011896 331.50046064 120.88018415 329.4375 118.875 C321.84508703 111.852018 313.55475959 106.86541062 304 103 C303.23300781 102.65066406 302.46601562 102.30132813 301.67578125 101.94140625 C282.53898902 93.52861353 256.89430299 94.59543124 237.625 101.9375 C236.07661259 102.60972673 234.53430159 103.29621667 233 104 C232.00806641 104.42732422 232.00806641 104.42732422 230.99609375 104.86328125 C221.61182329 109.16677498 213.55648887 116.07141421 206 123 C202.52226809 121.69729413 199.44611291 120.16974351 196.2890625 118.21875 C191.36924396 115.21633396 186.38805835 112.34321251 181.375 109.5 C173.63420029 105.09594358 165.93238801 100.63007685 158.25 96.125 C148.60260156 90.47240642 138.87918684 84.96610769 129.10839844 79.52978516 C128.12000977 78.97983887 127.13162109 78.42989258 126.11328125 77.86328125 C124.81064331 77.14072144 124.81064331 77.14072144 123.48168945 76.40356445 C122.66273193 75.94038818 121.84377441 75.47721191 121 75 C120.06953857 74.48719482 119.13907715 73.97438965 118.18041992 73.44604492 C117.46088135 72.9688501 116.74134277 72.49165527 116 72 C116 71.34 116 70.68 116 70 C115.2783667 69.89042969 114.5567334 69.78085937 113.81323242 69.66796875 C110.79546153 68.95143476 108.66106093 67.87360616 105.98828125 66.3125 C105.06595703 65.77882813 104.14363281 65.24515625 103.19335938 64.6953125 C102.24267578 64.13585937 101.29199219 63.57640625 100.3125 63 C98.41289228 61.8956065 96.51315898 60.79142895 94.61328125 59.6875 C93.77579346 59.19636719 92.93830566 58.70523438 92.07543945 58.19921875 C90.73886578 57.42692727 89.38068485 56.69034242 88 56 C88 55.34 88 54.68 88 54 C86.74123047 53.62875 86.74123047 53.62875 85.45703125 53.25 C81.62310512 51.86372162 78.20359671 50.03119208 74.6875 48 C73.99019775 47.60264648 73.29289551 47.20529297 72.57446289 46.79589844 C66.97535773 43.5935483 61.42204217 40.31378488 55.87231445 37.02685547 C46.79967176 31.67085357 37.60358588 26.53100777 28.42114258 21.36645508 C26.42272675 20.23858038 24.43030887 19.10154191 22.44140625 17.95703125 C19.69657575 16.3961231 16.93740091 14.88038101 14.16015625 13.37890625 C12.46067365 12.44058188 10.76145887 11.50177232 9.0625 10.5625 C7.75055664 9.86543945 7.75055664 9.86543945 6.41210938 9.15429688 C5.58646484 8.69216797 4.76082031 8.23003906 3.91015625 7.75390625 C3.15871338 7.34470947 2.40727051 6.9355127 1.63305664 6.51391602 C0.8246936 5.76452759 0.8246936 5.76452759 0 5 C0 3.35 0 1.7 0 0 Z " fill="#FEFDFE" transform="translate(242,739)"/>
<path d="M0 0 C0.763125 0.20625 1.52625 0.4125 2.3125 0.625 C1.03689082 4.90426035 -0.57666634 8.32112191 -3 12.0625 C-6.87691447 18.17584943 -10.45632976 24.43858497 -14 30.75 C-21.43119774 43.96766358 -29.03279154 57.08032527 -36.6784668 70.17480469 C-49.53190341 92.18887933 -62.25700875 114.27649581 -74.85546875 136.4375 C-79.67322456 144.89982557 -84.5964999 153.29667672 -89.54296875 161.68408203 C-93.79414277 168.89330419 -97.98013504 176.13161876 -102.0625 183.4375 C-104.99370175 188.68244839 -108.00570832 193.86480685 -111.125 199 C-114.42173248 204.43173182 -117.56058687 209.93402512 -120.625 215.5 C-124.24361339 222.07212774 -127.97053471 228.56576982 -131.79663086 235.01904297 C-135.1521384 240.6881772 -138.42897181 246.39964836 -141.6875 252.125 C-145.24938118 258.37981868 -148.83633739 264.61672292 -152.5 270.8125 C-156.67123317 277.86935303 -160.78125867 284.96042744 -164.875 292.0625 C-165.51139404 293.16650146 -166.14778809 294.27050293 -166.8034668 295.40795898 C-170.047201 301.03749644 -173.28788806 306.66878098 -176.52734375 312.30078125 C-183.04806855 323.62951414 -189.59739999 334.9375309 -196.30126953 346.15917969 C-199.41280633 351.38705297 -202.38369499 356.67454797 -205.27905273 362.02514648 C-207.21482087 365.59838186 -209.19460833 369.1458855 -211.1875 372.6875 C-211.76649048 373.71689697 -211.76649048 373.71689697 -212.35717773 374.76708984 C-214.88905562 379.25188919 -217.49546217 383.6832958 -220.16796875 388.0859375 C-224.05687879 394.58411623 -227.7447864 401.20413474 -231.484375 407.7890625 C-236.27384231 416.201332 -241.14616134 424.56374124 -246.03027344 432.92138672 C-252.96405158 444.79487893 -259.82732084 456.7088833 -266.6875 468.625 C-268.0075 468.295 -269.3275 467.965 -270.6875 467.625 C-270.6875 388.755 -270.6875 309.885 -270.6875 228.625 C-265.0775 226.645 -259.4675 224.665 -253.6875 222.625 C-238.653533 215.30075967 -226.73157216 204.63786361 -217.6875 190.625 C-217.16285156 189.86832031 -216.63820312 189.11164063 -216.09765625 188.33203125 C-211.64332748 181.56553181 -209.3367282 174.32153543 -207.22387695 166.56616211 C-206.71305858 164.71749716 -206.13739185 162.88711508 -205.55859375 161.05859375 C-204.0151929 154.7777033 -204.43963305 148.23363676 -204.5 141.8125 C-204.50145933 140.47721418 -204.5021165 139.14192723 -204.50195312 137.80664062 C-204.37672306 131.10962039 -204.37672306 131.10962039 -205.6875 124.625 C-206.16015625 121.2265625 -206.16015625 121.2265625 -205.6875 117.625 C-203.4515391 115.61945017 -201.70979422 114.4108141 -199.125 113 C-198.41899658 112.58741943 -197.71299316 112.17483887 -196.9855957 111.74975586 C-194.56768308 110.34721654 -192.12902421 108.98597853 -189.6875 107.625 C-187.84810466 106.57832172 -186.00959229 105.53009051 -184.171875 104.48046875 C-180.26708354 102.25769534 -176.35369891 100.05111465 -172.43359375 97.85546875 C-167.24367529 94.94527451 -162.08297697 91.98795639 -156.9375 89 C-155.78544067 88.33109741 -155.78544067 88.33109741 -154.61010742 87.64868164 C-153.07256726 86.75536675 -151.53521255 85.86173258 -149.99804688 84.96777344 C-145.28298119 82.22761481 -140.56255092 79.49667528 -135.84008789 76.76928711 C-131.71010925 74.38253417 -127.58940471 71.98142008 -123.48046875 69.55859375 C-122.62582031 69.05714844 -121.77117187 68.55570312 -120.890625 68.0390625 C-119.25903084 67.08138767 -117.62995655 66.11940167 -116.00390625 65.15234375 C-111.97970075 62.79671126 -108.21183089 60.8981424 -103.6875 59.625 C-103.6875 58.965 -103.6875 58.305 -103.6875 57.625 C-102.91148437 57.2125 -102.13546875 56.8 -101.3359375 56.375 C-93.03457926 51.93704237 -84.83681297 47.3362578 -76.6875 42.625 C-76.01041992 42.2336084 -75.33333984 41.8422168 -74.63574219 41.43896484 C-70.77289865 39.20485101 -66.91164865 36.96799543 -63.05078125 34.73046875 C-57.07974713 31.2713175 -51.10256158 27.82285574 -45.125 24.375 C-44.04307373 23.75077148 -42.96114746 23.12654297 -41.84643555 22.48339844 C-36.62920897 19.47365168 -31.41117803 16.46531728 -26.19084167 13.46096802 C-23.78855951 12.07829907 -21.38670603 10.69488644 -18.9848938 9.31140137 C-17.28193776 8.33088883 -15.5783527 7.35146906 -13.87475586 6.37207031 C-12.84487549 5.7787793 -11.81499512 5.18548828 -10.75390625 4.57421875 C-9.84584229 4.05174561 -8.93777832 3.52927246 -8.00219727 2.9909668 C-2.3728105 -0.33108984 -2.3728105 -0.33108984 0 0 Z " fill="#FEFEFE" transform="translate(447.6875,163.375)"/>
<path d="M0 0 C3.77815142 0.57909602 6.48178796 1.63925577 9.75390625 3.59765625 C11.13799683 4.41689575 11.13799683 4.41689575 12.55004883 5.25268555 C13.54415771 5.84992432 14.5382666 6.44716309 15.5625 7.0625 C17.7232049 8.3424186 19.88469598 9.62101073 22.046875 10.8984375 C23.7474707 11.90535645 23.7474707 11.90535645 25.48242188 12.93261719 C31.38871181 16.4152121 37.353748 19.79579035 43.3125 23.1875 C51.38788079 27.79030074 59.45737536 32.40261723 67.5 37.0625 C68.25579346 37.50021729 69.01158691 37.93793457 69.7902832 38.38891602 C73.10633253 40.31209827 76.41753056 42.24286859 79.71875 44.19140625 C80.8015625 44.82949219 81.884375 45.46757812 83 46.125 C83.9075 46.66382813 84.815 47.20265625 85.75 47.7578125 C88.05502779 49.11927381 88.05502779 49.11927381 91 50 C91 50.66 91 51.32 91 52 C91.83402344 52.23976562 92.66804687 52.47953125 93.52734375 52.7265625 C97.5399276 54.1979937 100.92499921 56.15936859 104.5625 58.375 C106.07343341 59.27995835 107.58519074 60.18354211 109.09765625 61.0859375 C109.89316895 61.5612793 110.68868164 62.03662109 111.50830078 62.52636719 C115.80896432 65.06985192 120.15570226 67.53203783 124.5 70 C131.96640865 74.24547054 139.39222224 78.55166337 146.75976562 82.96679688 C149.48654797 84.58878558 151.97957254 85.99319085 155 87 C155 87.66 155 88.32 155 89 C155.86238281 89.25265625 156.72476563 89.5053125 157.61328125 89.765625 C161.1745703 91.06362655 163.99998449 92.70682236 167.1875 94.75 C171.12512299 97.26611632 175.08318944 99.61450071 179.1953125 101.8359375 C185.11586781 105.03508992 190.90555627 108.43308871 196.6875 111.875 C197.68716797 112.46796875 198.68683594 113.0609375 199.71679688 113.671875 C202.14555981 115.11286354 204.5732721 116.55558792 207 118 C206.84633402 119.75141503 206.69107759 121.50269056 206.53515625 123.25390625 C206.44886963 124.2291626 206.36258301 125.20441895 206.27368164 126.20922852 C206.05310803 128.45844968 205.75711378 130.70020351 205.4375 132.9375 C202.37562636 157.88424095 210.59051306 180.53659669 225.6640625 200.1171875 C237.78792434 215.07941165 253.51419837 223.95841774 272 229 C272 307.87 272 386.74 272 468 C270.68 468.33 269.36 468.66 268 469 C267.63350342 468.34217529 267.26700684 467.68435059 266.8894043 467.0065918 C260.67706979 455.86392537 254.46437924 444.722708 248.0625 433.6875 C247.61890137 432.92276367 247.17530273 432.15802734 246.71826172 431.37011719 C244.74860957 427.98276061 242.76785617 424.60258076 240.765625 421.234375 C240.12109375 420.14640625 239.4765625 419.0584375 238.8125 417.9375 C238.26207031 417.01839844 237.71164062 416.09929687 237.14453125 415.15234375 C236 413 236 413 236 411 C235.34 411 234.68 411 234 411 C233.38125 409.71029297 233.38125 409.71029297 232.75 408.39453125 C229.19970993 401.12753127 225.38956174 394.2249617 221.078125 387.37109375 C218.91247367 383.8580165 216.87905935 380.29398437 214.875 376.6875 C211.08932516 369.88414925 207.18674042 363.15447597 203.25 356.4375 C198.59859506 348.49557333 194.01042342 340.52282506 189.5 332.5 C184.38420247 323.40176532 179.16091025 314.37084988 173.88769531 305.36303711 C170.81371346 300.11157937 167.75791771 294.85207763 164.75 289.5625 C162.02134586 284.76581324 159.24385518 280.00138169 156.4375 275.25 C150.20709562 264.69553632 144.10233142 254.06876757 137.98632812 243.44775391 C135.98755768 239.97840334 133.98650669 236.51038005 131.984375 233.04296875 C125.63270069 222.04196917 119.28768961 211.03771178 113 200 C112.6395459 199.3920459 112.2790918 198.7840918 111.90771484 198.15771484 C109 193.2121797 109 193.2121797 109 191 C108.34 191 107.68 191 107 191 C106.55269531 190.0821875 106.10539063 189.164375 105.64453125 188.21875 C105.03407645 186.97905718 104.42338661 185.73948009 103.8125 184.5 C103.52052734 183.89929688 103.22855469 183.29859375 102.92773438 182.6796875 C100.93825579 178.65794585 98.71890244 174.86877284 96.30981445 171.08496094 C94.00014048 167.40842493 91.85305167 163.6376026 89.6875 159.875 C88.96203979 158.61852661 88.96203979 158.61852661 88.22192383 157.33666992 C85.52973156 152.66987586 82.85309395 147.99452386 80.1875 143.3125 C76.61035708 137.03424916 72.96248401 130.79863122 69.3125 124.5625 C64.072417 115.60683648 58.93043582 106.60153776 53.85400391 97.55224609 C49.35714272 89.56350929 44.69919093 81.67533368 39.96069336 73.82763672 C39.44128174 72.96025879 38.92187012 72.09288086 38.38671875 71.19921875 C37.92483154 70.43440186 37.46294434 69.66958496 36.98706055 68.8815918 C36 67 36 67 36 65 C35.34 65 34.68 65 34 65 C33.65710938 64.2678125 33.31421875 63.535625 32.9609375 62.78125 C29.12876226 54.85261157 24.89037812 47.22209767 20.4375 39.625 C19.54865112 38.10773315 19.54865112 38.10773315 18.6418457 36.55981445 C15.4332271 31.0998329 12.19796472 25.65650798 8.9453125 20.22265625 C7.9699353 18.58079346 7.9699353 18.58079346 6.97485352 16.90576172 C5.71849955 14.79146861 4.45360301 12.68222394 3.17944336 10.57861328 C2.61620361 9.62841309 2.05296387 8.67821289 1.47265625 7.69921875 C0.97000244 6.86221436 0.46734863 6.02520996 -0.05053711 5.1628418 C-1 3 -1 3 0 0 Z " fill="#FEFEFE" transform="translate(575,163)"/>
<path d="M0 0 C2.42130331 3.63195496 2.21022785 5.38349348 2.125 9.6875 C2.10695313 10.86699219 2.08890625 12.04648437 2.0703125 13.26171875 C2.03550781 14.61716797 2.03550781 14.61716797 2 16 C2.66 16 3.32 16 4 16 C4.05447047 17.41623216 4.09300508 18.83308191 4.125 20.25 C4.14820312 21.03890625 4.17140625 21.8278125 4.1953125 22.640625 C3.9828378 25.20731941 3.28654105 26.7916067 2 29 C-0.52816306 19.36137832 -0.18269137 9.88563297 0 0 Z " fill="#E751B5" transform="translate(66,709)"/>
<path d="M0 0 C3.51098025 4.01254885 5.76537994 8.20983041 8 13 C6.35 13 4.7 13 3 13 C1.23537317 9.91190305 1 8.76687864 1 5 C0.34 5 -0.32 5 -1 5 C-0.67 3.35 -0.34 1.7 0 0 Z " fill="#E644B0" transform="translate(835,618)"/>
<path d="M0 0 C0.33 0 0.66 0 1 0 C1.33 2.64 1.66 5.28 2 8 C1.34 8 0.68 8 0 8 C0.33 8.99 0.66 9.98 1 11 C1.12781786 13.67394964 1.04391871 16.32095857 1 19 C0.34 18.67 -0.32 18.34 -1 18 C-1.33 19.65 -1.66 21.3 -2 23 C-2.33 23 -2.66 23 -3 23 C-2.22095672 7.25512528 -2.22095672 7.25512528 0 0 Z " fill="#E641AF" transform="translate(69,280)"/>
<path d="M0 0 C0 0.99 0 1.98 0 3 C0.825 2.835 1.65 2.67 2.5 2.5 C6.41272317 1.94103955 10.05183173 1.93192813 14 2 C14 2.99 14 3.98 14 5 C11.45749979 4.88525534 8.91652662 4.7585303 6.375 4.625 C5.66214844 4.5940625 4.94929687 4.563125 4.21484375 4.53125 C-0.17152608 4.28979845 -3.8594834 3.60657269 -8 2 C-4.91190305 0.23537317 -3.76687864 0 0 0 Z " fill="#E33FAD" transform="translate(138,802)"/>
<path d="M0 0 C-13.27374302 2.2122905 -13.27374302 2.2122905 -19 -1 C-17.0852312 -1.36428777 -15.16807707 -1.71605306 -13.25 -2.0625 C-12.18265625 -2.25972656 -11.1153125 -2.45695313 -10.015625 -2.66015625 C-5.54457483 -3.16401812 -3.73633058 -2.49088705 0 0 Z " fill="#E547B1" transform="translate(151,220)"/>
<path d="M0 0 C0.33 0 0.66 0 1 0 C1.19865739 8.89543642 1.33447255 17.32910197 -1 26 C-1.33 24.68 -1.66 23.36 -2 22 C-2.66 22 -3.32 22 -4 22 C-4 21.01 -4 20.02 -4 19 C-3.34 18.67 -2.68 18.34 -2 18 C-1.53272148 16.16471137 -1.53272148 16.16471137 -1.3671875 13.96484375 C-1.24150391 12.75151367 -1.24150391 12.75151367 -1.11328125 11.51367188 C-1.03464844 10.66353516 -0.95601562 9.81339844 -0.875 8.9375 C-0.78863281 8.08349609 -0.70226562 7.22949219 -0.61328125 6.34960938 C-0.40052772 4.23389367 -0.19920047 2.11703476 0 0 Z " fill="#E648B1" transform="translate(957,712)"/>
<path d="M0 0 C0 2.64 0 5.28 0 8 C-1.65 8 -3.3 8 -5 8 C-5 6.68 -5 5.36 -5 4 C-5.66 3.67 -6.32 3.34 -7 3 C-2.25 0 -2.25 0 0 0 Z " fill="#E640AF" transform="translate(300,199)"/>
<path d="M0 0 C0.33 0.66 0.66 1.32 1 2 C1.66 2.33 2.32 2.66 3 3 C2 6 2 6 -0.4375 7.375 C-3.44734958 9.2836851 -4.00395199 10.64965669 -5 14 C-5.66 14 -6.32 14 -7 14 C-5.53967505 8.68972746 -3.01679014 4.53669968 0 0 Z " fill="#E74CB2" transform="translate(445,173)"/>
<path d="M0 0 C0 0.66 0 1.32 0 2 C1.65 2 3.3 2 5 2 C5.33 3.98 5.66 5.96 6 8 C1.56541027 6.6062718 -0.87378374 4.39417765 -4 1 C-2 0 -2 0 0 0 Z " fill="#E543AF" transform="translate(815,785)"/>
<path d="M0 0 C0.33 0.66 0.66 1.32 1 2 C1.66 2.33 2.32 2.66 3 3 C2.01 4.98 1.02 6.96 0 9 C-0.66 7.68 -1.32 6.36 -2 5 C-2 5.99 -2 6.98 -2 8 C-2.66 8 -3.32 8 -4 8 C-4.33 8.99 -4.66 9.98 -5 11 C-5.33 9.02 -5.66 7.04 -6 5 C-5.38125 4.731875 -4.7625 4.46375 -4.125 4.1875 C-1.7004767 3.04443152 -1.7004767 3.04443152 0 0 Z " fill="#E744B0" transform="translate(271,553)"/>
<path d="M0 0 C1.06669922 0.00322266 2.13339844 0.00644531 3.23242188 0.00976562 C4.88661133 0.02233398 4.88661133 0.02233398 6.57421875 0.03515625 C7.69634766 0.03966797 8.81847656 0.04417969 9.97460938 0.04882812 C12.73703385 0.06058312 15.49934873 0.07701548 18.26171875 0.09765625 C18.26171875 0.42765625 18.26171875 0.75765625 18.26171875 1.09765625 C17.3013269 1.13524048 17.3013269 1.13524048 16.3215332 1.17358398 C13.40558149 1.29001085 10.48991585 1.41252492 7.57421875 1.53515625 C6.56681641 1.57447266 5.55941406 1.61378906 4.52148438 1.65429688 C3.54501953 1.69619141 2.56855469 1.73808594 1.5625 1.78125 C0.66700439 1.81790771 -0.22849121 1.85456543 -1.15112305 1.89233398 C-3.77973102 2.03409033 -3.77973102 2.03409033 -6.44458008 2.74243164 C-7.57996216 2.91826782 -7.57996216 2.91826782 -8.73828125 3.09765625 C-9.39828125 2.43765625 -10.05828125 1.77765625 -10.73828125 1.09765625 C-7.09180065 0.25660845 -3.73877218 -0.01999343 0 0 Z " fill="#E84BB2" transform="translate(504.73828125,10.90234375)"/>
<path d="M0 0 C2.97 1.65 5.94 3.3 9 5 C6.64046906 7.35953094 5.22104383 7.49141413 2 8 C1.87625 7.360625 1.7525 6.72125 1.625 6.0625 C1.315625 5.0415625 1.315625 5.0415625 1 4 C0.34 3.67 -0.32 3.34 -1 3 C-0.67 2.01 -0.34 1.02 0 0 Z " fill="#E542AF" transform="translate(602,128)"/>
<path d="M0 0 C3.29078593 2.79716804 5.06305458 6.19528578 7 10 C6.67 10.66 6.34 11.32 6 12 C5.01 11.34 4.02 10.68 3 10 C3 9.34 3 8.68 3 8 C2.01 7.67 1.02 7.34 0 7 C0 4.69 0 2.38 0 0 Z " fill="#E74BB2" transform="translate(626,256)"/>
<path d="M0 0 C0.99 0 1.98 0 3 0 C5.67345333 2.77627845 6.47557578 5.2241456 7 9 C6.01 8.01 5.02 7.02 4 6 C3.01 6.33 2.02 6.66 1 7 C0.34 6.67 -0.32 6.34 -1 6 C-0.67 4.02 -0.34 2.04 0 0 Z " fill="#E84CB5" transform="translate(945,265)"/>
<path d="M0 0 C0.66 0.66 1.32 1.32 2 2 C1.625 4.4375 1.625 4.4375 1 7 C1 7.99 1 8.98 1 10 C-0.65 9.67 -2.3 9.34 -4 9 C-2.80100302 5.9168649 -1.52299523 2.93720508 0 0 Z " fill="#E640AF" transform="translate(412,230)"/>
<path d="M0 0 C0.99 0.66 1.98 1.32 3 2 C1.02 2.99 1.02 2.99 -1 4 C-0.938125 4.928125 -0.87625 5.85625 -0.8125 6.8125 C-1 10 -1 10 -2.5 11.875 C-3.2425 12.431875 -3.2425 12.431875 -4 13 C-5.0169313 10.34501768 -5.13022151 9.30844625 -4.00390625 6.640625 C-3.52824219 5.85171875 -3.05257813 5.0628125 -2.5625 4.25 C-2.08941406 3.45078125 -1.61632812 2.6515625 -1.12890625 1.828125 C-0.75636719 1.22484375 -0.38382812 0.6215625 0 0 Z " fill="#E545B1" transform="translate(423,211)"/>
<path d="M0 0 C4 1 4 1 5.3359375 2.48828125 C5.67882812 3.09027344 6.02171875 3.69226563 6.375 4.3125 C6.91253906 5.20388672 6.91253906 5.20388672 7.4609375 6.11328125 C8 8 8 8 6 12 C4.02 8.04 2.04 4.08 0 0 Z " fill="#E544AF" transform="translate(550,208)"/>
<path d="M0 0 C2.50037734 2.17424117 3.43628586 3.73045798 4 7 C3.01 7 2.02 7 1 7 C0.67 7.66 0.34 8.32 0 9 C-0.66 8.34 -1.32 7.68 -2 7 C-1.6730244 4.38419521 -1.17960932 2.35921863 0 0 Z " fill="#E642B0" transform="translate(588,54)"/>
<path d="M0 0 C1.65 0.33 3.3 0.66 5 1 C1.46813168 3.15059309 -1.66287993 3.3797728 -5.75 3.625 C-6.92046875 3.69976563 -8.0909375 3.77453125 -9.296875 3.8515625 C-10.18890625 3.90054688 -11.0809375 3.94953125 -12 4 C-11.67 3.01 -11.34 2.02 -11 1 C-7.37 1.33 -3.74 1.66 0 2 C0 1.34 0 0.68 0 0 Z " fill="#E344AF" transform="translate(885,803)"/>
<path d="M0 0 C-1.75 1.5625 -1.75 1.5625 -4 3 C-5.34262065 2.70630173 -6.67696283 2.3721042 -8 2 C-10.21771064 2.85790183 -10.21771064 2.85790183 -12 4 C-12.66 3.34 -13.32 2.68 -14 2 C-8.77729131 -0.66464729 -5.9180497 -1.32854177 0 0 Z " fill="#E94FB6" transform="translate(132,634)"/>
<path d="M0 0 C0.66 1.32 1.32 2.64 2 4 C1.34 4 0.68 4 0 4 C-0.268125 4.598125 -0.53625 5.19625 -0.8125 5.8125 C-1.98493467 7.97224808 -3.19369282 9.35790256 -5 11 C-5.66 10.67 -6.32 10.34 -7 10 C-6.21516341 8.51719804 -5.42190666 7.0388502 -4.625 5.5625 C-4.18414062 4.73878906 -3.74328125 3.91507812 -3.2890625 3.06640625 C-2 1 -2 1 0 0 Z " fill="#E648B2" transform="translate(373,300)"/>
<path d="M0 0 C0.66 0.33 1.32 0.66 2 1 C0.66511872 4.59391114 -0.96022723 7.75490696 -3 11 C-3.90786761 7.70897992 -4.59440475 5.18880951 -3 2 C-2.34 2.33 -1.68 2.66 -1 3 C-0.67 2.01 -0.34 1.02 0 0 Z " fill="#E543AF" transform="translate(350,418)"/>
<path d="M0 0 C0.33 0.99 0.66 1.98 1 3 C1.66 3.33 2.32 3.66 3 4 C3 4.66 3 5.32 3 6 C2.01 6.33 1.02 6.66 0 7 C-0.33 7.66 -0.66 8.32 -1 9 C-3.0625 9.625 -3.0625 9.625 -5 10 C-3.66511872 6.40608886 -2.03977277 3.24509304 0 0 Z " fill="#E646B0" transform="translate(392,265)"/>
<path d="M0 0 C0.66 0.33 1.32 0.66 2 1 C0.75 3.5 0.75 3.5 -1 6 C-2.32 6 -3.64 6 -5 6 C-5 6.66 -5 7.32 -5 8 C-7 7 -7 7 -8 5 C-6.71475739 4.13619741 -5.42157581 3.28419631 -4.125 2.4375 C-3.04605469 1.72400391 -3.04605469 1.72400391 -1.9453125 0.99609375 C-1.30335938 0.66738281 -0.66140625 0.33867188 0 0 Z " fill="#E64AB3" transform="translate(744,767)"/>
<path d="M0 0 C-0.33 0.99 -0.66 1.98 -1 3 C-1.66 3 -2.32 3 -3 3 C-3.66 4.32 -4.32 5.64 -5 7 C-6.65 6.67 -8.3 6.34 -10 6 C-7.35570758 3.077361 -4.105808 0 0 0 Z " fill="#E443AE" transform="translate(234,237)"/>
<path d="M0 0 C2.52349243 3.12432397 4.27256146 6.38060496 6 10 C4.35 9.67 2.7 9.34 1 9 C-1.125 2.25 -1.125 2.25 0 0 Z " fill="#E745B1" transform="translate(587,188)"/>
<path d="M0 0 C2.64 1.32 5.28 2.64 8 4 C6.02 4.99 6.02 4.99 4 6 C3.34 5.67 2.68 5.34 2 5 C2 5.66 2 6.32 2 7 C0.68 6.67 -0.64 6.34 -2 6 C-1.01 5.01 -0.02 4.02 1 3 C0.67 2.01 0.34 1.02 0 0 Z " fill="#E543B0" transform="translate(685,176)"/>
<path d="M0 0 C1.32 0 2.64 0 4 0 C4.99 2.64 5.98 5.28 7 8 C6.34 8.66 5.68 9.32 5 10 C3.35 6.7 1.7 3.4 0 0 Z " fill="#E643AF" transform="translate(703,473)"/>
<path d="M0 0 C0.66 0 1.32 0 2 0 C2 0.66 2 1.32 2 2 C2.99 2 3.98 2 5 2 C5.33 1.34 5.66 0.68 6 0 C6.33 2.64 6.66 5.28 7 8 C6.01 8.495 6.01 8.495 5 9 C4.16396622 7.68921847 3.3312426 6.37632511 2.5 5.0625 C2.0359375 4.33160156 1.571875 3.60070312 1.09375 2.84765625 C0 1 0 1 0 0 Z " fill="#E74AB3" transform="translate(616,323)"/>
<path d="M0 0 C0.66 0 1.32 0 2 0 C5.22265625 5.17578125 5.22265625 5.17578125 6 7 C5.67 7.99 5.34 8.98 5 10 C2.03134491 7.45543849 0.6380249 4.51005335 -1 1 C-0.67 0.67 -0.34 0.34 0 0 Z " fill="#E747B2" transform="translate(561,225)"/>
<path d="M0 0 C0 0.66 0 1.32 0 2 C-0.66 2 -1.32 2 -2 2 C-2.33 2.99 -2.66 3.98 -3 5 C-5.31 5 -7.62 5 -10 5 C-6.99385784 1.69324363 -4.54252119 0 0 0 Z " fill="#E74EB3" transform="translate(119,225)"/>
<path d="M0 0 C4.42857143 5.14285714 4.42857143 5.14285714 5 9 C3.68 9.33 2.36 9.66 1 10 C0.67 9.01 0.34 8.02 0 7 C0.66 7 1.32 7 2 7 C1.34 6.01 0.68 5.02 0 4 C-0.33 3.34 -0.66 2.68 -1 2 C-0.67 1.34 -0.34 0.68 0 0 Z " fill="#E544AF" transform="translate(611,230)"/>
<path d="M0 0 C1.32 1.32 2.64 2.64 4 4 C3.34 5.32 2.68 6.64 2 8 C1.67 7.34 1.34 6.68 1 6 C0.34 6 -0.32 6 -1 6 C-1.042721 4.33388095 -1.04063832 2.66617115 -1 1 C-0.67 0.67 -0.34 0.34 0 0 Z " fill="#E546B1" transform="translate(941,254)"/>
<path d="M0 0 C0.99 0.33 1.98 0.66 3 1 C1.68 3.64 0.36 6.28 -1 9 C-1.66 7.68 -2.32 6.36 -3 5 C-1.625 2.25 -1.625 2.25 0 0 Z " fill="#E740AF" transform="translate(590,961)"/>
<path d="M0 0 C4.29 0.33 8.58 0.66 13 1 C13 1.33 13 1.66 13 2 C7.06 2.495 7.06 2.495 1 3 C0.67 2.01 0.34 1.02 0 0 Z " fill="#E744B0" transform="translate(523,836)"/>
<path d="M0 0 C0.66 0 1.32 0 2 0 C2.33 0.66 2.66 1.32 3 2 C5.3140622 2.73075648 7.64828869 3.40138258 10 4 C9.01 5.485 9.01 5.485 8 7 C5.0280615 5.87548273 2.66559313 4.77706209 0 3 C0 2.01 0 1.02 0 0 Z " fill="#E64BB3" transform="translate(260,800)"/>
<path d="M0 0 C0.66 0 1.32 0 2 0 C3.06775224 1.96466413 4.06553465 3.96855359 5 6 C4.67 6.66 4.34 7.32 4 8 C3.01 8 2.02 8 1 8 C0.67 5.36 0.34 2.72 0 0 Z " fill="#E745B1" transform="translate(233,676)"/>
<path d="M0 0 C2.5654594 2.5654594 2.54046087 4.47686668 3 8 C1.68 8 0.36 8 -1 8 C-1.93065133 5.39417629 -2.14917407 4.35801776 -1.0625 1.75 C-0.711875 1.1725 -0.36125 0.595 0 0 Z " fill="#E743B1" transform="translate(212,576)"/>
<path d="M0 0 C1 3 1 3 0.00390625 5.26171875 C-0.47175781 6.06222656 -0.94742188 6.86273437 -1.4375 7.6875 C-2.14712891 8.89986328 -2.14712891 8.89986328 -2.87109375 10.13671875 C-3.24363281 10.75160156 -3.61617187 11.36648438 -4 12 C-4.66 12 -5.32 12 -6 12 C-4.43358249 7.69235185 -2.31663844 3.93828536 0 0 Z " fill="#E751B5" transform="translate(240,528)"/>
<path d="M0 0 C2.97 0 5.94 0 9 0 C8.67 1.65 8.34 3.3 8 5 C4.35446828 3.7191375 2.83328987 2.83328987 0 0 Z " fill="#E74DB5" transform="translate(101,377)"/>
<path d="M0 0 C0.33 0 0.66 0 1 0 C1 1.65 1 3.3 1 5 C0.34 5 -0.32 5 -1 5 C-1 6.32 -1 7.64 -1 9 C-2.32 9.33 -3.64 9.66 -5 10 C-3.66654496 6.40992874 -2.1056769 3.20429093 0 0 Z " fill="#E54DB2" transform="translate(80,257)"/>
<path d="M0 0 C3.875 1.75 3.875 1.75 5 4 C3.625 5.5 3.625 5.5 2 7 C1.34 7 0.68 7 0 7 C-1.04449911 3.86650268 -0.93423645 3.01031744 0 0 Z " fill="#E640B0" transform="translate(569,856)"/>
<path d="M0 0 C-0.33 0.99 -0.66 1.98 -1 3 C-1.99 3.33 -2.98 3.66 -4 4 C-4.33 4.66 -4.66 5.32 -5 6 C-5.66 6 -6.32 6 -7 6 C-7.33 5.01 -7.66 4.02 -8 3 C-3.375 0 -3.375 0 0 0 Z " fill="#E646B1" transform="translate(635,832)"/>
<path d="M0 0 C3.3 1.65 6.6 3.3 10 5 C10 5.33 10 5.66 10 6 C3.52443609 5.38909774 3.52443609 5.38909774 1.0625 3.5625 C0 2 0 2 0 0 Z " fill="#E644AF" transform="translate(302,778)"/>
<path d="M0 0 C2.475 0.495 2.475 0.495 5 1 C5.33 2.65 5.66 4.3 6 6 C5.01 6 4.02 6 3 6 C2.01 4.02 1.02 2.04 0 0 Z " fill="#E545B0" transform="translate(750,555)"/>
<path d="M0 0 C-0.33 0.99 -0.66 1.98 -1 3 C-7.75 2.25 -7.75 2.25 -10 0 C-6.42355152 -1.2380014 -3.66305234 -0.74926071 0 0 Z " fill="#E955B8" transform="translate(130,388)"/>
<path d="M0 0 C0.66 0 1.32 0 2 0 C2 0.66 2 1.32 2 2 C2.66 2 3.32 2 4 2 C5.38232443 3.62626404 6.71937515 5.2925002 8 7 C7.01 7.33 6.02 7.66 5 8 C0 2.25 0 2.25 0 0 Z " fill="#E748B2" transform="translate(87,362)"/>
<path d="M0 0 C2 2 2 2 2.125 4.625 C2.08375 5.40875 2.0425 6.1925 2 7 C0.02 7.33 -1.96 7.66 -4 8 C-2.68 5.36 -1.36 2.72 0 0 Z " fill="#E849B2" transform="translate(405,242)"/>
<path d="M0 0 C0.99 0.33 1.98 0.66 3 1 C3.3721042 2.32303717 3.70630173 3.65737935 4 5 C4.66 5.33 5.32 5.66 6 6 C5.67 6.99 5.34 7.98 5 9 C1.9083091 6.47043472 1.09068668 3.77545388 0 0 Z " fill="#E648B1" transform="translate(570,242)"/>
<path d="M0 0 C2.31 0.33 4.62 0.66 7 1 C7.33 2.65 7.66 4.3 8 6 C5.525 5.01 5.525 5.01 3 4 C3 3.34 3 2.68 3 2 C2.01 2 1.02 2 0 2 C0 1.34 0 0.68 0 0 Z " fill="#E646B1" transform="translate(663,211)"/>
<path d="M0 0 C0.66 0.33 1.32 0.66 2 1 C1.01 1.33 0.02 1.66 -1 2 C-1 2.66 -1 3.32 -1 4 C-3.30368736 5.06652192 -5.64018187 6.06421005 -8 7 C-8.66 6.67 -9.32 6.34 -10 6 C-8.3811004 4.96951963 -6.75467511 3.95085322 -5.125 2.9375 C-4.22007812 2.36902344 -3.31515625 1.80054688 -2.3828125 1.21484375 C-1.20332031 0.61349609 -1.20332031 0.61349609 0 0 Z " fill="#E753B6" transform="translate(407,136)"/>
<path d="M0 0 C0.66 0 1.32 0 2 0 C2 0.66 2 1.32 2 2 C3.32 2 4.64 2 6 2 C6.33 3.98 6.66 5.96 7 8 C6.01 8.495 6.01 8.495 5 9 C4.34 7.02 3.68 5.04 3 3 C2.34 3 1.68 3 1 3 C0.67 2.01 0.34 1.02 0 0 Z " fill="#E744B1" transform="translate(624,337)"/>
<path d="M0 0 C0.66 0.33 1.32 0.66 2 1 C0.10595266 4.34243648 -0.94091591 4.97997149 -4.6875 6.25 C-6.3271875 6.62125 -6.3271875 6.62125 -8 7 C-5.42215154 4.35247996 -3.08351902 2.05567935 0 0 Z " fill="#E952B6" transform="translate(822,229)"/>
<path d="M0 0 C4.42857143 5.14285714 4.42857143 5.14285714 5 9 C3.68 9 2.36 9 1 9 C0.67 6.03 0.34 3.06 0 0 Z " fill="#E74FB4" transform="translate(595,202)"/>
<path d="M0 0 C0.66 0.99 1.32 1.98 2 3 C1.125 5.6875 1.125 5.6875 0 8 C-0.99 8 -1.98 8 -3 8 C-2.74438677 5.6568787 -2.40729228 3.32156597 -2 1 C-1.34 0.67 -0.68 0.34 0 0 Z " fill="#E343AF" transform="translate(597,898)"/>
<path d="M0 0 C2.31 0 4.62 0 7 0 C4.31158141 2.25245881 2.35358125 3.88213958 -1 5 C-1.33 4.34 -1.66 3.68 -2 3 C-1.34 2.67 -0.68 2.34 0 2 C0 1.34 0 0.68 0 0 Z " fill="#E849B4" transform="translate(748,804)"/>
<path d="M0 0 C0 0.99 0 1.98 0 3 C0.66 3.33 1.32 3.66 2 4 C-1.71888239 3.49287967 -4.73454239 2.88391785 -8 1 C-5.10765685 0.17361624 -3.11257569 0 0 0 Z " fill="#E74EB4" transform="translate(138,802)"/>
<path d="M0 0 C2 0.75 2 0.75 4 3.75 C3.01 4.08 2.02 4.41 1 4.75 C-1.6875 2.8125 -1.6875 2.8125 -4 0.75 C-2 -0.25 -2 -0.25 0 0 Z " fill="#E642AE" transform="translate(238,786.25)"/>
<path d="M0 0 C2.46278801 2.46278801 2.99771255 4.70676982 4 8 C3.01 8 2.02 8 1 8 C0.26919734 6.02253397 -0.39421747 4.01927511 -1 2 C-0.67 1.34 -0.34 0.68 0 0 Z " fill="#E541AF" transform="translate(779,600)"/>
<path d="M0 0 C0.33 0 0.66 0 1 0 C1 1.65 1 3.3 1 5 C-0.98 5.99 -0.98 5.99 -3 7 C-3 7.66 -3 8.32 -3 9 C-3.66 8.67 -4.32 8.34 -5 8 C-4.19185349 6.66402348 -3.37836819 5.331275 -2.5625 4 C-2.11003906 3.2575 -1.65757812 2.515 -1.19140625 1.75 C-0.79824219 1.1725 -0.40507812 0.595 0 0 Z " fill="#E954B7" transform="translate(269,478)"/>
<path d="M0 0 C2.72426311 2.35277269 3.8141763 4.62496331 5 8 C4.01 8.495 4.01 8.495 3 9 C3 8.34 3 7.68 3 7 C2.34 7 1.68 7 1 7 C1 6.34 1 5.68 1 5 C0.34 5 -0.32 5 -1 5 C-0.67 3.35 -0.34 1.7 0 0 Z " fill="#E347AF" transform="translate(709,400)"/>
<path d="M0 0 C0.66 0 1.32 0 2 0 C1.125 4.75 1.125 4.75 0 7 C-0.66 7 -1.32 7 -2 7 C-2.33 7.66 -2.66 8.32 -3 9 C-2.44271087 5.65626525 -1.64826111 2.96687001 0 0 Z " fill="#E74BB3" transform="translate(390,349)"/>
<path d="M0 0 C-0.66 2.64 -1.32 5.28 -2 8 C-3.74627478 5.38058783 -4.38722388 3.96175123 -5 1 C-3 0 -3 0 0 0 Z " fill="#E543B0" transform="translate(790,336)"/>
<path d="M0 0 C3.375 0.25 3.375 0.25 7 1 C8.4375 3.0625 8.4375 3.0625 9 5 C5.54074837 3.7508258 2.85306797 2.32472205 0 0 Z " fill="#E74BB2" transform="translate(687,226)"/>
<path d="M0 0 C-0.5775 0.2475 -1.155 0.495 -1.75 0.75 C-4.3002997 2.16683317 -6.01785701 3.87627537 -8 6 C-8.99 5.34 -9.98 4.68 -11 4 C-9.73760288 3.13341385 -8.46472499 2.28207941 -7.1875 1.4375 C-6.47980469 0.96183594 -5.77210938 0.48617187 -5.04296875 -0.00390625 C-3 -1 -3 -1 0 0 Z " fill="#E952B6" transform="translate(271,217)"/>
<path d="M0 0 C0.66 0.99 1.32 1.98 2 3 C2.66 2.67 3.32 2.34 4 2 C3.67 3.65 3.34 5.3 3 7 C1.68 7.33 0.36 7.66 -1 8 C-1.125 2.25 -1.125 2.25 0 0 Z " fill="#E840AF" transform="translate(435,190)"/>
<path d="M0 0 C0.99 0 1.98 0 3 0 C2.37240135 2.92879371 1.41377341 5.36095629 0 8 C-0.66 8 -1.32 8 -2 8 C-1.34 5.36 -0.68 2.72 0 0 Z " fill="#E74CB3" transform="translate(428,68)"/>
<path d="M0 0 C3.37462715 0.54723683 5.08235 1.0549 8 3 C7.67 3.66 7.34 4.32 7 5 C2.25 3.125 2.25 3.125 0 2 C0 1.34 0 0.68 0 0 Z " fill="#E84FB6" transform="translate(275,810)"/>
<path d="M0 0 C2.31 0 4.62 0 7 0 C7 0.99 7 1.98 7 3 C6.01 3.495 6.01 3.495 5 4 C2.375 2.625 2.375 2.625 0 1 C0 0.67 0 0.34 0 0 Z " fill="#E753B6" transform="translate(111,795)"/>
<path d="M0 0 C0.99 0.33 1.98 0.66 3 1 C3.33 3.64 3.66 6.28 4 9 C1.74754119 6.31158141 0.11786042 4.35358125 -1 1 C-0.67 0.67 -0.34 0.34 0 0 Z " fill="#E641AF" transform="translate(649,377)"/>
<path d="M0 0 C0.66 0.99 1.32 1.98 2 3 C1.67 3.99 1.34 4.98 1 6 C0.01 6 -0.98 6 -2 6 C-2 6.66 -2 7.32 -2 8 C-2.66 7.67 -3.32 7.34 -4 7 C-2.68 4.69 -1.36 2.38 0 0 Z " fill="#E64EB3" transform="translate(356,327)"/>
<path d="M0 0 C0.33 0 0.66 0 1 0 C1.33 2.64 1.66 5.28 2 8 C1.34 8 0.68 8 0 8 C-0.66 9.32 -1.32 10.64 -2 12 C-1.44687265 7.97007218 -0.8441938 3.97977076 0 0 Z " fill="#E953B5" transform="translate(69,280)"/>
<path d="M0 0 C0 0.33 0 0.66 0 1 C-5.02125926 1.77916092 -8.97703996 2.13016601 -14 1 C-14 0.67 -14 0.34 -14 0 C-8.97703996 -1.13016601 -5.02125926 -0.77916092 0 0 Z " fill="#E94FB5" transform="translate(864,218)"/>
<path d="M0 0 C1.65 0.33 3.3 0.66 5 1 C4.67 2.32 4.34 3.64 4 5 C1.525 4.01 1.525 4.01 -1 3 C-0.67 2.01 -0.34 1.02 0 0 Z " fill="#E645B2" transform="translate(593,169)"/>
<path d="M0 0 C0 0.66 0 1.32 0 2 C-3.465 3.485 -3.465 3.485 -7 5 C-7.33 4.01 -7.66 3.02 -8 2 C-5.09399739 0.74335022 -3.20395416 0 0 0 Z " fill="#E544B0" transform="translate(648,865)"/>
<path d="M0 0 C-0.5625 1.9375 -0.5625 1.9375 -2 4 C-5.625 4.75 -5.625 4.75 -9 5 C-2.87096774 0 -2.87096774 0 0 0 Z " fill="#E64DB3" transform="translate(776,750)"/>
<path d="M0 0 C0.99 0.99 1.98 1.98 3 3 C2.67 3.99 2.34 4.98 2 6 C0.35 5.67 -1.3 5.34 -3 5 C-3 3 -3 3 -1.5 1.375 C-1.005 0.92125 -0.51 0.4675 0 0 Z " fill="#E63FAF" transform="translate(941,666)"/>
<path d="M0 0 C1.32 1.65 2.64 3.3 4 5 C3.67 5.66 3.34 6.32 3 7 C2.34 6.67 1.68 6.34 1 6 C0.67 6.99 0.34 7.98 0 9 C-1.125 2.25 -1.125 2.25 0 0 Z " fill="#E547B0" transform="translate(804,564)"/>
<path d="M0 0 C1.31571603 0.2547514 2.62760376 0.52934141 3.9375 0.8125 C4.66839844 0.96332031 5.39929688 1.11414063 6.15234375 1.26953125 C6.76207031 1.51058594 7.37179687 1.75164062 8 2 C8.33 2.99 8.66 3.98 9 5 C5.22454612 3.90931332 2.52956528 3.0916909 0 0 Z " fill="#E854B5" transform="translate(715,242)"/>
<path d="M0 0 C2.91517292 1.07401108 4.77810176 1.77810176 7 4 C4 5 4 5 1 4 C0.3125 1.9375 0.3125 1.9375 0 0 Z " fill="#E641B0" transform="translate(412,842)"/>
<path d="M0 0 C0.78375 0.04125 1.5675 0.0825 2.375 0.125 C2.375 0.785 2.375 1.445 2.375 2.125 C0.725 2.785 -0.925 3.445 -2.625 4.125 C-3.285 3.465 -3.945 2.805 -4.625 2.125 C-2.625 0.125 -2.625 0.125 0 0 Z " fill="#E641AE" transform="translate(709.625,827.875)"/>
<path d="M0 0 C2.3125 0.8125 2.3125 0.8125 4 2 C-0.43076923 4.09230769 -0.43076923 4.09230769 -3.3125 3.625 C-3.869375 3.41875 -4.42625 3.2125 -5 3 C-2.75 1.375 -2.75 1.375 0 0 Z " fill="#E84DB3" transform="translate(680,804)"/>
<path d="M0 0 C2 2 2 2 2 6 C0.68 6.33 -0.64 6.66 -2 7 C-1.34 4.69 -0.68 2.38 0 0 Z " fill="#E647B1" transform="translate(74,680)"/>
<path d="M0 0 C1.32 1.65 2.64 3.3 4 5 C3.67 5.66 3.34 6.32 3 7 C1.68 6.34 0.36 5.68 -1 5 C-0.67 3.35 -0.34 1.7 0 0 Z " fill="#E64DB3" transform="translate(715,410)"/>
<path d="M0 0 C1.98 0.66 3.96 1.32 6 2 C5.34 2.66 4.68 3.32 4 4 C4 3.34 4 2.68 4 2 C3.34 2 2.68 2 2 2 C2 2.66 2 3.32 2 4 C0.68 3.34 -0.64 2.68 -2 2 C-1.34 1.34 -0.68 0.68 0 0 Z " fill="#E952B8" transform="translate(786,235)"/>
<path d="M0 0 C0.99 0.33 1.98 0.66 3 1 C0.64031256 3.09749995 -0.54616994 3.96905704 -3.75 4.1875 C-4.86375 4.0946875 -4.86375 4.0946875 -6 4 C-4.03617993 2.49440461 -2.21736634 1.10868317 0 0 Z " fill="#E549B1" transform="translate(834,223)"/>
<path d="M0 0 C0.99 0.33 1.98 0.66 3 1 C2.67 2.65 2.34 4.3 2 6 C0.68 5.67 -0.64 5.34 -2 5 C-1.34 3.35 -0.68 1.7 0 0 Z " fill="#E547B1" transform="translate(436,52)"/>
</svg>
