<?xml version="1.0" encoding="UTF-8"?>
<svg version="1.1" xmlns="http://www.w3.org/2000/svg" width="512" height="512">
<path d="M0 0 C2.41847306 1.17486632 4.8374391 2.34859644 7.2578125 3.51953125 C7.87305786 3.81724426 8.48830322 4.11495728 9.12219238 4.42169189 C15.33760644 7.42085056 21.60460567 10.30535574 27.875 13.1875 C40.23075139 18.87869275 52.45338986 24.82596944 64.66998291 30.80886841 C74.98242882 35.856944 85.3168809 40.83011299 95.75 45.625 C100.37840472 47.76353226 105.0032568 49.90961366 109.625 52.0625 C110.36459961 52.40665955 111.10419922 52.75081909 111.86621094 53.10540771 C116.84457607 55.4254411 121.81152424 57.76810639 126.76849365 60.1335144 C128.3969595 60.90721292 130.02827815 61.67494108 131.66265869 62.43606567 C145.23200331 68.7632534 155.52973616 74.76190677 161.625 89.0625 C162.91946019 93.18941062 163.87242542 97.36638888 164.80371094 101.58837891 C165.08259155 102.80330521 165.36147217 104.01823151 165.64880371 105.26997375 C166.40639414 108.5819719 167.15248721 111.89615912 167.89345837 115.21188784 C168.68333063 118.73333895 169.48807303 122.25139162 170.29107666 125.76986694 C171.81702516 132.46629379 173.329744 139.16563643 174.83769631 145.86613595 C176.51929619 153.3352597 178.21562043 160.80101129 179.91328526 168.26649714 C182.04515256 177.64174517 184.17415434 187.01760227 186.28430176 196.39776611 C186.44031687 197.09120062 186.59633199 197.78463513 186.75707483 198.4990828 C188.04732483 204.23412451 188.04732483 204.23412451 188.60594273 206.71789026 C190.55968238 215.40031602 192.55165303 224.07292863 194.58398438 232.73730469 C195.22096573 235.47609761 195.85678206 238.21515753 196.49201202 240.95435715 C197.05176706 243.34821469 197.62626664 245.73817539 198.20159912 248.12832642 C201.39505374 261.72332267 202.66088956 274.23522252 195.0703125 286.59375 C193.02620717 289.50638077 190.86406776 292.29930743 188.625 295.0625 C188.12145996 295.68398926 187.61791992 296.30547852 187.09912109 296.94580078 C183.5724427 301.27821925 180.00780778 305.57852793 176.4375 309.875 C173.58495493 313.31772681 170.75778846 316.78082552 167.9375 320.25 C167.39963867 320.91161133 166.86177734 321.57322266 166.30761719 322.25488281 C162.43726835 327.02980497 158.63856096 331.85725621 154.85864258 336.70385742 C150.60779484 342.131368 146.21387432 347.43676717 141.81665039 352.74584961 C138.18810874 357.13651898 134.62341283 361.56760105 131.125 366.0625 C126.39366679 372.14047735 121.51619525 378.08972281 116.60766602 384.02514648 C112.94115357 388.45962075 109.31397741 392.92068335 105.734375 397.42578125 C104.04629436 399.53588205 102.34778307 401.6358517 100.640625 403.73046875 C100.09954102 404.39449707 99.55845703 405.05852539 99.00097656 405.74267578 C97.87660058 407.12099555 96.75095147 408.49827775 95.62402344 409.87451172 C92.89716951 413.21636831 90.21377414 416.57707928 87.625 420.02734375 C82.16140689 427.28439425 77.57242513 433.08002496 68.625 436.0625 C66.09074746 436.16443437 63.58371702 436.2103104 61.04919434 436.20967102 C60.27035023 436.21334771 59.49150613 436.2170244 58.68906069 436.2208125 C56.07069529 436.23185418 53.45236958 436.23569406 50.83398438 436.23950195 C48.95978672 436.24576642 47.08559031 436.25241321 45.21139526 436.25941467 C39.04718899 436.28046581 32.88298244 436.29082051 26.71875 436.30078125 C24.59574877 436.30482892 22.47274767 436.30894584 20.3497467 436.31313133 C10.37207513 436.33218815 0.39441096 436.34641612 -9.58327532 436.3547433 C-21.09198533 436.36450708 -32.60050257 436.39080216 -44.10914469 436.43124419 C-53.00866815 436.46144135 -61.90813648 436.47621574 -70.80771017 436.47952431 C-76.1205764 436.4818714 -81.43323681 436.49078698 -86.74604797 436.51598549 C-91.74967145 436.53933302 -96.75295459 436.54347257 -101.7566185 436.53322411 C-103.58710235 436.5327302 -105.41760333 436.53900756 -107.24803543 436.55278015 C-119.79612324 436.64186444 -130.7837864 435.9637845 -140.87109375 427.5546875 C-146.91101474 421.54303447 -152.10951292 414.74866361 -157.375 408.0625 C-157.86258789 407.44391113 -158.35017578 406.82532227 -158.85253906 406.18798828 C-160.63677712 403.91996428 -162.41781534 401.64954546 -164.19091797 399.37280273 C-167.83827214 394.70166481 -171.59479751 390.12650257 -175.375 385.5625 C-180.06793817 379.89651201 -184.67288888 374.17678521 -189.19140625 368.37109375 C-192.839851 363.70150995 -196.59513828 359.12609115 -200.375 354.5625 C-204.61140268 349.44770713 -208.79565504 344.30348268 -212.875 339.0625 C-216.91966045 333.86948494 -221.05715162 328.76160387 -225.25 323.6875 C-225.8387793 322.9749707 -226.42755859 322.26244141 -227.03417969 321.52832031 C-227.62360352 320.81514648 -228.21302734 320.10197266 -228.8203125 319.3671875 C-233.87349165 313.25308938 -238.89764725 307.11620403 -243.86865234 300.93505859 C-244.85874315 299.704265 -245.85119 298.47536231 -246.84619141 297.24853516 C-255.99098017 285.93911371 -261.2753317 276.82137397 -260.375 262.0625 C-259.75558167 257.93082776 -258.84158407 253.89141831 -257.88745117 249.82543945 C-257.62226685 248.65247818 -257.35708252 247.47951691 -257.0838623 246.27101135 C-256.35824407 243.07228139 -255.62217809 239.87618168 -254.88130355 236.68095803 C-254.09439569 233.27545217 -253.32124309 229.86682326 -252.54646301 226.45854187 C-251.06747945 219.96192638 -249.57638673 213.46815366 -248.0808652 206.97532767 C-246.42305929 199.77539024 -244.77844258 192.57246468 -243.13518119 185.36919618 C-241.05462725 176.2491905 -238.97154687 167.12979824 -236.87179565 158.01419067 C-236.24178461 155.27851655 -235.61181979 152.54283178 -234.98193359 149.80712891 C-234.82830597 149.14000075 -234.67467834 148.47287259 -234.51639533 147.78552842 C-232.35337988 138.38708464 -230.23557504 128.97925518 -228.14697266 119.56396484 C-227.40870496 116.25892495 -226.66932002 112.95413749 -225.92940712 109.64946556 C-225.47601812 107.61155676 -225.02721864 105.57262031 -224.58348656 103.53258705 C-218.6946834 76.46504645 -218.6946834 76.46504645 -207.375 69.0625 C-202.04589786 66.03562293 -196.48340524 63.47363891 -190.9375 60.875 C-189.35667483 60.12256421 -187.77643963 59.36888776 -186.19677734 58.61401367 C-183.04690821 57.11098039 -179.89398396 55.6147117 -176.73779297 54.125 C-171.96871724 51.87329952 -167.21521927 49.59036707 -162.46362305 47.30200195 C-159.48542789 45.86798344 -156.50472116 44.43930384 -153.5234375 43.01171875 C-146.71766295 39.75002096 -139.92081983 36.46987082 -133.125 33.1875 C-132.51924133 32.89493317 -131.91348267 32.60236633 -131.28936768 32.30093384 C-128.21431538 30.81569859 -125.13936055 29.33026171 -122.06445312 27.84472656 C-118.41305874 26.0807621 -114.76127384 24.31760733 -111.109375 22.5546875 C-110.51173843 22.26615906 -109.91410187 21.97763062 -109.2983551 21.68035889 C-106.29086389 20.22845434 -103.28314366 18.77702816 -100.27514648 17.32617188 C-93.45597844 14.03664017 -86.64190324 10.73692572 -79.83357239 7.42501831 C-75.54053033 5.33868335 -71.23719556 3.2750551 -66.9296875 1.21875 C-63.00276131 -0.65646125 -59.11356938 -2.57665385 -55.2578125 -4.59375 C-34.9525439 -14.92773952 -19.3814761 -9.48570333 0 0 Z " fill="#326DE6" transform="translate(285.375,42.9375)"/>
<path d="M0 0 C2.69105198 2.17574416 4.45532928 3.91065856 6 7 C6.39048746 11.80390392 6.28186342 16.40779028 5 21.0625 C3.83281438 25.68122022 3.7736837 30.20026746 3.75 34.9375 C3.74097656 35.69619385 3.73195313 36.4548877 3.72265625 37.23657227 C3.59051043 41.58499226 3.59051043 41.58499226 6 45 C6.125 47.625 6.125 47.625 6 50 C7.16144531 49.9690625 8.32289063 49.938125 9.51953125 49.90625 C13.70408148 49.91359615 17.62605709 50.51786297 21.6875 51.5 C22.40591064 51.67305664 23.12432129 51.84611328 23.86450195 52.02441406 C45.72314081 57.6037577 68.06740614 67.49456269 83.25 84.6875 C85.21262911 86.69929727 86.37369705 87.83555174 89.09765625 88.55078125 C96.29469506 88.38576978 101.84701671 83.57881449 107 79 C109.64201803 76.19984659 112.18128047 73.32839681 114.71875 70.43359375 C118.43896737 66.4649372 121.65759537 64.37478474 127.125 63.5 C130.72973722 64.12691082 132.39961285 65.47390963 135 68 C136.62820425 71.25640851 136.53004627 74.48125907 136 78 C133.59712579 84.15495587 128.63458479 86.54834674 122.99609375 89.38671875 C115.03443198 93.6737674 107.69506633 98.19611665 105 107 C104.67 107.99 104.34 108.98 104 110 C104.70613639 111.96301178 104.70613639 111.96301178 105.9140625 113.9921875 C106.34315918 114.77287598 106.77225586 115.55356445 107.21435547 116.35791016 C107.91262451 117.60386963 107.91262451 117.60386963 108.625 118.875 C119.13940521 138.30165009 124.19603114 157.48365448 124.125 179.5625 C124.12886719 180.76841797 124.13273437 181.97433594 124.13671875 183.21679688 C124.13478516 184.96766602 124.13478516 184.96766602 124.1328125 186.75390625 C124.13168457 187.80908447 124.13055664 188.8642627 124.12939453 189.95141602 C123.99824744 193.04129105 123.57214362 195.96343437 123 199 C124.175625 199.185625 124.175625 199.185625 125.375 199.375 C128 200 128 200 130 202 C136.36686492 204.26561167 142.73720776 204.61678161 149.44140625 205.03515625 C156.69472783 205.62386382 163.12832618 207.33844866 168.5625 212.375 C170.36722294 215.67058102 170.77009279 217.30355463 170 221 C166.91739726 224.4585299 165.64406234 225.78828106 161.02734375 226.3828125 C154.43228509 226.17549194 148.09310616 223.09137817 141.98046875 220.84375 C135.75517892 218.64566532 130.59488757 217.39058825 124 218 C123.05640625 217.99742187 122.1128125 217.99484375 121.140625 217.9921875 C118.58423684 218.92209658 118.58423684 218.92209658 117.296875 222.5078125 C116.76635788 224.04180536 116.2517183 225.58134808 115.75 227.125 C111.05878895 240.27347661 104.18232709 251.47473659 95 262 C94.20207031 262.94230469 93.40414063 263.88460938 92.58203125 264.85546875 C84.54910387 274.12957401 74.902162 283.19723635 64 289 C63.34 289 62.68 289 62 289 C62.2165625 290.2684375 62.2165625 290.2684375 62.4375 291.5625 C63 295 63 295 63.1875 298.1875 C65.42318123 308.67800424 73.12465869 318.18698803 79 327 C79.43858429 330.94725863 79.34818229 333.30363543 77.5625 336.875 C73.92785892 339.88909261 70.65346394 340.27520486 66 340 C61.48112127 338.29286803 59.26532845 335.12312876 57 331 C55.81344518 328.04903851 54.86808924 325.04009208 53.9375 322 C52.30008781 316.73595867 50.52815693 311.92127877 48 307 C48 306.34 48 305.68 48 305 C47.38125 304.7525 46.7625 304.505 46.125 304.25 C43.62519797 302.77952822 43.16683978 301.58596924 42 299 C41.43796875 299.24234375 40.8759375 299.4846875 40.296875 299.734375 C11.45493086 311.23576377 -20.92255987 309.32471152 -50 300 C-57.92994686 308.2987816 -61.17529009 318.05642567 -64.69140625 328.8359375 C-66.5985632 333.44727221 -68.85894165 336.23929443 -73 339 C-77.78837042 339.54062247 -79.89466366 339.69083521 -84 337.125 C-86.38567074 333.39738947 -86.89928828 331.10566045 -86.6796875 326.7265625 C-85.59573354 322.3782874 -83.00362832 319.46043554 -80.24609375 316 C-77.78652968 312.71487791 -75.85813479 309.39728785 -74 305.75 C-73.4225 304.63109375 -72.845 303.5121875 -72.25 302.359375 C-70.87503244 298.66414967 -70.85035315 295.90952391 -71 292 C-70.67 291.01 -70.34 290.02 -70 289 C-70.77601563 288.48953125 -71.55203125 287.9790625 -72.3515625 287.453125 C-97.65762696 270.42135847 -116.69541023 248.53195885 -126 219 C-135.74309942 217.0014155 -143.17002316 218.32462023 -152.5 221.5 C-159.56664816 223.90507473 -165.49177235 225.64229676 -173 225 C-176.20879247 222.96994762 -177.62927537 221.57700553 -178.5078125 217.83984375 C-178.83664855 213.55782644 -178.68051058 211.847476 -175.8984375 208.3828125 C-170.63024433 204.33841662 -163.33477029 204.2302864 -156.9375 203.375 C-154.88801967 203.09108094 -152.83988923 202.80121549 -150.79310608 202.4984436 C-148.93943829 202.2255971 -147.0829175 201.97234404 -145.22631836 201.72021484 C-140.91317296 200.75738632 -138.10709979 199.10709979 -135 196 C-134.01 196 -133.02 196 -132 196 C-132.15855469 194.74832031 -132.31710938 193.49664062 -132.48046875 192.20703125 C-135.58892423 163.92174277 -129.69823484 139.36024998 -116.734375 114.42578125 C-115.32713857 111.64617236 -114.09192081 108.91364584 -113 106 C-113.99 105.01 -113.99 105.01 -115 104 C-115.29648438 103.20078125 -115.59296875 102.4015625 -115.8984375 101.578125 C-119.16564721 93.93146397 -129.46468712 89.8888083 -136.50244141 86.19628906 C-143.10896795 82.6559953 -143.10896795 82.6559953 -145 79 C-145.96782384 74.03990282 -145.69404778 70.14182054 -143.0625 65.8125 C-139.38393995 63.63539303 -137.43407688 63.50341149 -133.29296875 64.2109375 C-129.46914763 65.52680098 -126.56268496 67.89346549 -124 71 C-124 71.66 -124 72.32 -124 73 C-123.01 73.33 -122.02 73.66 -121 74 C-119.421875 75.671875 -119.421875 75.671875 -117.75 77.75 C-113.35524322 82.87108688 -109.31379244 86.80706601 -102.5625 88.3125 C-99.7344384 88.46882501 -98.46983789 88.34709651 -96.17578125 86.65234375 C-94.88897397 85.29296166 -93.62863616 83.90832448 -92.38671875 82.5078125 C-80.1774386 69.67907623 -61.81321349 60.03051348 -45 55 C-44.18402344 54.72800781 -43.36804688 54.45601562 -42.52734375 54.17578125 C-33.88848026 51.50463945 -24.96298331 50.83812275 -16 50 C-16.04125 49.236875 -16.0825 48.47375 -16.125 47.6875 C-16 45 -16 45 -14 42 C-13.82868569 39.41576722 -13.76516825 36.95517188 -13.8125 34.375 C-13.81894531 33.65296387 -13.82539063 32.93092773 -13.83203125 32.18701172 C-13.89554871 27.77354055 -14.20511036 23.46177703 -14.7578125 19.08203125 C-15.95784911 8.76558753 -15.95784911 8.76558753 -13.953125 5.0703125 C-10.00254198 0.21341926 -6.15741111 -1.08521422 0 0 Z " fill="#FDFDFE" transform="translate(260,90)"/>
<path d="M0 0 C1.93931853 0.32956905 3.8787709 0.65835154 5.81835938 0.98632812 C9.35553015 1.58846115 12.89253726 2.19136539 16.42749023 2.80639648 C17.13155502 2.92853012 17.83561981 3.05066376 18.5610199 3.17649841 C20.58395178 3.56663715 22.56890119 4.04423592 24.5625 4.5625 C21.22854933 24.73717583 4.2894927 42.07541862 -11.32421875 54.00390625 C-15.00609756 56.5625 -15.00609756 56.5625 -17.4375 56.5625 C-18.07981567 54.97550293 -18.07981567 54.97550293 -18.73510742 53.35644531 C-20.34663613 49.37523982 -21.95897187 45.39436156 -23.5715332 41.41357422 C-24.26510769 39.70109622 -24.95847256 37.98853331 -25.65161133 36.27587891 C-26.32492619 34.61228074 -26.99859858 32.94882722 -27.67263794 31.28552246 C-28.33454465 29.65132421 -28.99525657 28.0166415 -29.65475464 26.38146973 C-31.07641304 22.86614532 -32.51000263 19.36164868 -34.04150391 15.89257812 C-34.72672119 14.32926758 -34.72672119 14.32926758 -35.42578125 12.734375 C-35.81934814 11.86393555 -36.21291504 10.99349609 -36.6184082 10.09667969 C-37.59087047 7.08798868 -37.70062868 4.70714307 -37.4375 1.5625 C-30.68450999 -9.14913932 -10.37134347 -1.80481928 0 0 Z " fill="#336EE6" transform="translate(326.4375,299.4375)"/>
<path d="M0 0 C3.40013186 0.5765441 4.92670485 1.60997661 7.25 4.125 C10.30737401 7.31869005 13.49457356 10.23736793 16.83984375 13.125 C20.06773209 15.92678373 23.23369676 18.79604568 26.40625 21.66015625 C28.1739346 23.25479944 29.94490873 24.84580192 31.71875 26.43359375 C32.5953125 27.21863281 33.471875 28.00367188 34.375 28.8125 C35.16648438 29.52019531 35.95796875 30.22789062 36.7734375 30.95703125 C42.94310173 36.61796878 42.94310173 36.61796878 43.4375 39.9375 C42.93827799 43.43205404 42.09095628 45.16972512 40 48 C37.609375 49.22265625 37.609375 49.22265625 34.75 50.0625 C33.66847656 50.38734375 32.58695313 50.7121875 31.47265625 51.046875 C26.79953425 52.32948666 22.11742556 53.57205196 17.42578125 54.78515625 C10.84057332 56.5431702 4.34779094 58.64089758 -2.14379883 60.71411133 C-3.08892334 61.00954834 -4.03404785 61.30498535 -5.0078125 61.609375 C-5.84973145 61.87717773 -6.69165039 62.14498047 -7.55908203 62.42089844 C-10.12256362 63.02907791 -12.37513029 63.10426842 -15 63 C-16.03573672 41.04813568 -11.81422637 18.81912165 0 0 Z " fill="#346EE6" transform="translate(166,217)"/>
<path d="M0 0 C-0.26288187 6.22574675 -0.52953564 12.45131678 -0.79956055 18.67675781 C-0.89074612 20.79097204 -0.98093282 22.9052296 -1.07006836 25.01953125 C-1.19897822 28.07303852 -1.33157816 31.12636759 -1.46484375 34.1796875 C-1.52272316 35.57874832 -1.52272316 35.57874832 -1.58177185 37.006073 C-1.7814454 41.50344481 -2.03656824 45.99401731 -2.40454102 50.48095703 C-2.46859634 51.27519073 -2.53265167 52.06942444 -2.59864807 52.88772583 C-3 55 -3 55 -5.0625 58.125 C-8.73892097 60.47165168 -11.78387402 60.67155965 -16 60 C-19.02734375 58.234375 -19.02734375 58.234375 -21.9375 55.75 C-23.05833644 54.82594525 -24.18219206 53.90554389 -25.30859375 52.98828125 C-25.90140137 52.50053223 -26.49420898 52.0127832 -27.10498047 51.51025391 C-30.46179079 48.83501188 -33.98201334 46.39449404 -37.5 43.9375 C-38.21397949 43.43524902 -38.92795898 42.93299805 -39.66357422 42.41552734 C-43.08067812 40.01740958 -46.51294152 37.64483309 -49.97265625 35.30859375 C-50.8853125 34.6889978 -50.8853125 34.6889978 -51.81640625 34.05688477 C-53.45801707 32.94572174 -55.10576366 31.84363898 -56.75390625 30.7421875 C-57.49511719 30.16726562 -58.23632812 29.59234375 -59 29 C-59 28.34 -59 27.68 -59 27 C-43.9248176 12.43840097 -21.41924428 0 0 0 Z " fill="#346EE6" transform="translate(242,168)"/>
<path d="M0 0 C19.32487202 0.07446964 38.53441728 9.72285642 53 22 C54.88558938 23.93302559 56.42265416 25.80298258 58 28 C51.09625961 33.87439093 43.77344686 38.99616327 36.25927734 44.05029297 C32.41812437 46.63851822 28.62168681 49.24490956 24.94140625 52.05859375 C24.32362305 52.52539551 23.70583984 52.99219727 23.06933594 53.47314453 C21.42753411 54.72480168 19.80102967 55.99645372 18.17578125 57.26953125 C13.88357789 59.60833332 11.84527804 59.7101255 7 59 C3.83614575 56.48955668 2.2245772 54.91130029 1.2487793 50.95166016 C1.19117432 49.82550293 1.13356934 48.6993457 1.07421875 47.5390625 C0.99993652 46.27263916 0.9256543 45.00621582 0.84912109 43.70141602 C0.79433385 42.3426472 0.7404782 40.98384055 0.6875 39.625 C0.61678507 38.23682639 0.54467118 36.84872337 0.47119141 35.46069336 C-0.11786535 23.64428692 -0.21100966 11.82826354 0 0 Z " fill="#336EE6" transform="translate(268,169)"/>
<path d="M0 0 C6.27662909 8.02316936 9.36410684 17.26587486 12 27 C12.256604 27.86496094 12.51320801 28.72992188 12.77758789 29.62109375 C14.91883124 37.28940965 15.37015201 44.31634622 15.1875 52.25 C15.16719727 53.95736328 15.16719727 53.95736328 15.14648438 55.69921875 C15.11160054 58.46666987 15.06259317 61.23306105 15 64 C6.98371074 63.39441605 -0.52277746 60.97024046 -8.1875 58.6875 C-9.53434444 58.29177014 -10.88134886 57.89658433 -12.22851562 57.50195312 C-14.87759219 56.72496852 -17.52256563 55.93570035 -20.16552734 55.13818359 C-22.68279274 54.39098563 -25.2092843 53.67406563 -27.74462891 52.99072266 C-28.89753418 52.67022949 -30.05043945 52.34973633 -31.23828125 52.01953125 C-32.25575439 51.74858643 -33.27322754 51.4776416 -34.3215332 51.19848633 C-37.65046548 49.70894768 -39.03105684 48.03926398 -41 45 C-41.59375 41.5625 -41.59375 41.5625 -41 38 C-39.20296579 35.65187529 -37.65879408 33.94005598 -35.5 32 C-34.94755615 31.47728516 -34.3951123 30.95457031 -33.82592773 30.41601562 C-32.23575258 28.92210928 -30.62482428 27.45604572 -29 26 C-27.95005859 25.05640625 -27.95005859 25.05640625 -26.87890625 24.09375 C-25.65763556 23.02218346 -24.42827037 21.95977935 -23.19140625 20.90625 C-20.23473134 18.33431175 -17.37136019 15.66643798 -14.5 13 C-9.73779067 8.58236102 -4.93047141 4.23037426 0 0 Z " fill="#346EE6" transform="translate(342,216)"/>
<path d="M0 0 C4.36018211 0.67657998 6.6444653 2.47264504 9.625 5.5625 C11.64794922 8.66186523 11.64794922 8.66186523 13.4296875 12.12109375 C13.92119797 13.05949852 13.92119797 13.05949852 14.42263794 14.01686096 C15.46101155 16.00500116 16.48113937 18.00180142 17.5 20 C18.51109683 21.95580852 19.52602616 23.90957716 20.54229736 25.86270142 C21.21539448 27.15644626 21.88658966 28.45118247 22.55584717 29.74691772 C25.57414908 35.55793201 28.83700019 41.21089473 32.16064453 46.85180664 C33.625 49.5625 33.625 49.5625 33.625 51.5625 C22.77802803 54.48987557 12.44399715 55.95047766 1.1875 55.9375 C0.12354004 55.93878906 -0.94041992 55.94007813 -2.03662109 55.94140625 C-12.29051464 55.80139964 -21.89231695 54.57440437 -31.375 50.5625 C-26.51676016 40.55836138 -21.40003788 30.68836456 -16.20361328 20.85650635 C-15.48653683 19.49762374 -14.77200175 18.13739692 -14.06005859 16.77581787 C-13.04209515 14.83098378 -12.01448777 12.89154559 -10.984375 10.953125 C-10.38592773 9.81907227 -9.78748047 8.68501953 -9.17089844 7.51660156 C-6.60157478 3.2902807 -4.98331049 0.83055175 0 0 Z " fill="#346EE6" transform="translate(253.375,317.4375)"/>
<path d="M0 0 C2.2052398 3.92042632 1.6316323 6.77849087 0.6875 11 C-0.30241045 14.01822491 -1.52956825 16.90489884 -2.8046875 19.8125 C-3.15129425 20.62565674 -3.497901 21.43881348 -3.85501099 22.27661133 C-4.95633752 24.85527278 -6.07136376 27.4277189 -7.1875 30 C-8.29352193 32.57346999 -9.39666292 35.14815249 -10.49856567 37.72338867 C-11.18227805 39.3186056 -11.86884164 40.91260476 -12.55880737 42.50512695 C-14.62322557 47.28940711 -16.51807761 52.10775771 -18.3125 57 C-22.60542115 56.13680283 -25.25511127 53.87451565 -28.5 51.0625 C-29.07588867 50.56596924 -29.65177734 50.06943848 -30.24511719 49.55786133 C-43.32575169 38.09497959 -52.97512563 24.20379642 -59.3125 8 C-59.3125 7.34 -59.3125 6.68 -59.3125 6 C-53.92438182 4.59975354 -48.56454583 3.42853021 -43.078125 2.4921875 C-42.31884705 2.36184113 -41.55956909 2.23149475 -40.77728271 2.09719849 C-39.18092837 1.82488644 -37.58426308 1.55439148 -35.98730469 1.28564453 C-33.58097711 0.87812913 -31.17732459 0.45679588 -28.7734375 0.03515625 C-6.31600642 -3.81343784 -6.31600642 -3.81343784 0 0 Z " fill="#346FE6" transform="translate(217.3125,299)"/>
<path d="M0 0 C5.89657218 1.29443935 8.84097795 5.24451463 12.38671875 9.84765625 C14.25227329 13.88889589 13.90819216 15.87610554 12.9140625 20.15625 C12.76710938 21.47302734 12.76710938 21.47302734 12.6171875 22.81640625 C11.76660455 27.32596242 10.86385279 29.50183685 7 32.1640625 C-2.66838334 36.85639301 -2.66838334 36.85639301 -8.0859375 35.15625 C-8.92253906 34.91390625 -9.75914062 34.6715625 -10.62109375 34.421875 C-14.9644821 32.67646392 -17.46221341 31.36646092 -19.65625 27.109375 C-22.80038482 17.39114011 -22.80038482 17.39114011 -21.0859375 12.15625 C-16.33143825 3.00538261 -10.26914855 -1.15588757 0 0 Z " fill="#356FE6" transform="translate(259.0859375,251.84375)"/>
</svg>
